<svg width="522" height="1227" viewBox="0 0 522 1227" fill="none" xmlns="http://www.w3.org/2000/svg">
<rect width="114.874" height="114.874" transform="matrix(0.70128 0.712885 -0.70128 0.712885 -27.441 287.216)" fill="#F2FF58" fill-opacity="0.1"/>
<rect width="38.0314" height="38.0314" transform="matrix(0.725752 0.687956 -0.725752 0.687956 64.0043 0)" fill="#F2FF58" fill-opacity="0.1"/>
<rect width="44.4622" height="44.4622" transform="matrix(0.70128 0.712885 -0.70128 0.712885 4.92432 386.112)" fill="#F2FF58" fill-opacity="0.15"/>
<rect width="79.827" height="79.827" transform="matrix(0.70128 0.712885 -0.70128 0.712885 64.0043 163.784)" fill="#F2FF58" fill-opacity="0.1"/>
<rect width="149.811" height="149.811" transform="matrix(0.70128 0.712885 -0.70128 0.712885 14.588 52.2209)" fill="#F2FF58" fill-opacity="0.1"/>
<rect width="114.874" height="114.874" transform="matrix(0.70128 0.712885 -0.70128 0.712885 -9.44104 1063.22)" fill="#F2FF58" fill-opacity="0.1"/>
<rect width="38.0314" height="38.0314" transform="matrix(0.725752 0.687956 -0.725752 0.687956 82.0043 776)" fill="#F2FF58" fill-opacity="0.1"/>
<rect width="44.4622" height="44.4622" transform="matrix(0.70128 0.712885 -0.70128 0.712885 22.9243 1162.11)" fill="#F2FF58" fill-opacity="0.15"/>
<rect width="79.827" height="79.827" transform="matrix(0.70128 0.712885 -0.70128 0.712885 82.0043 939.784)" fill="#F2FF58" fill-opacity="0.1"/>
<rect width="149.811" height="149.811" transform="matrix(0.70128 0.712885 -0.70128 0.712885 32.588 828.221)" fill="#F2FF58" fill-opacity="0.1"/>
<rect x="257.343" y="90" width="194.232" height="194.232" transform="rotate(45 257.343 90)" fill="#032425"/>
<rect x="257.343" y="92.1213" width="191.232" height="191.232" transform="rotate(45 257.343 92.1213)" stroke="#F2FF58" stroke-opacity="0.8" stroke-width="3"/>
<path d="M188.707 226.243V216.083L188.507 214.463H197.367C198.22 214.463 198.887 214.577 199.367 214.803C199.86 215.03 200.22 215.33 200.447 215.703C200.687 216.063 200.84 216.45 200.907 216.863C200.974 217.277 201.007 217.67 201.007 218.043V219.223C201.007 219.53 200.96 219.877 200.867 220.263C200.774 220.637 200.6 221.003 200.347 221.363C200.094 221.71 199.727 222.003 199.247 222.243C198.767 222.47 198.14 222.583 197.367 222.583H195.327C194.487 222.583 193.7 222.563 192.967 222.523C192.247 222.483 191.707 222.45 191.347 222.423V226.243H188.707ZM191.347 220.663H196.787C197.387 220.663 197.8 220.517 198.027 220.223C198.254 219.93 198.367 219.577 198.367 219.163V217.903C198.367 217.477 198.254 217.117 198.027 216.823C197.8 216.53 197.394 216.383 196.807 216.383H191.347V220.663ZM204.4 226.243V214.483H207.04V226.243H204.4ZM210.84 226.243L211.04 224.643V214.483H213.68V224.323H221.96L222.76 226.023C222.76 226.077 222.58 226.13 222.22 226.183C221.86 226.223 221.24 226.243 220.36 226.243H210.84ZM223.551 226.243L229.411 214.483H233.351L239.191 226.243H236.111L234.931 223.703H227.771L226.471 226.243H223.551ZM228.491 221.743H234.191L231.451 216.283H231.251L228.491 221.743ZM254.175 226.443C253.642 226.443 253.115 226.363 252.595 226.203C252.089 226.03 251.509 225.617 250.855 224.963L249.415 223.523C248.829 222.923 248.182 222.483 247.475 222.203C246.782 221.923 245.909 221.783 244.855 221.783H244.235V226.243H241.595V216.083L241.395 214.463H250.255C251.109 214.463 251.775 214.577 252.255 214.803C252.749 215.03 253.109 215.33 253.335 215.703C253.575 216.063 253.729 216.45 253.795 216.863C253.862 217.277 253.895 217.67 253.895 218.043V218.423C253.895 218.717 253.855 219.043 253.775 219.403C253.695 219.763 253.542 220.117 253.315 220.463C253.089 220.81 252.762 221.103 252.335 221.343C251.922 221.583 251.375 221.723 250.695 221.763C250.869 221.857 251.089 222.003 251.355 222.203C251.622 222.39 251.895 222.597 252.175 222.823C252.469 223.05 252.735 223.257 252.975 223.443C253.215 223.63 253.402 223.763 253.535 223.843C254.015 224.123 254.442 224.317 254.815 224.423C255.189 224.53 255.495 224.59 255.735 224.603C255.975 224.617 256.115 224.623 256.155 224.623L255.755 226.243C255.635 226.283 255.435 226.323 255.155 226.363C254.875 226.417 254.549 226.443 254.175 226.443ZM247.235 219.963C247.742 219.963 248.195 219.957 248.595 219.943C248.995 219.917 249.355 219.89 249.675 219.863C250.262 219.797 250.669 219.637 250.895 219.383C251.135 219.117 251.255 218.777 251.255 218.363V217.903C251.255 217.477 251.142 217.117 250.915 216.823C250.689 216.53 250.282 216.383 249.695 216.383H244.235V219.863C244.822 219.903 245.362 219.93 245.855 219.943C246.349 219.957 246.809 219.963 247.235 219.963ZM258.558 226.243V214.483H270.998V216.403H261.198V219.163H268.678V221.143H261.198V224.323H271.078L271.878 226.023C271.878 226.077 271.698 226.13 271.338 226.183C270.978 226.223 270.358 226.243 269.478 226.243H258.558ZM276.71 226.243C275.804 226.243 275.137 226.203 274.71 226.123C274.284 226.043 274.07 225.95 274.07 225.843L274.87 224.103C275.177 224.157 275.937 224.21 277.15 224.263C278.377 224.303 280.057 224.323 282.19 224.323H282.57C283.144 224.323 283.55 224.223 283.79 224.023C284.03 223.81 284.15 223.457 284.15 222.963V222.563C284.15 222.097 284.05 221.763 283.85 221.563C283.664 221.363 283.237 221.263 282.57 221.263H277.93C276.584 221.263 275.604 221.017 274.99 220.523C274.377 220.017 274.07 219.197 274.07 218.063V217.743C274.07 217.157 274.177 216.617 274.39 216.123C274.617 215.63 274.997 215.237 275.53 214.943C276.064 214.637 276.797 214.483 277.73 214.483H283.17C284.077 214.483 284.81 214.53 285.37 214.623C285.93 214.717 286.21 214.817 286.21 214.923L285.81 216.603C285.464 216.563 284.677 216.523 283.45 216.483C282.224 216.43 280.577 216.403 278.51 216.403L278.29 216.383C277.677 216.383 277.264 216.51 277.05 216.763C276.837 217.003 276.724 217.31 276.71 217.683V218.023C276.71 218.463 276.83 218.797 277.07 219.023C277.324 219.237 277.737 219.343 278.31 219.343H282.75C283.604 219.343 284.33 219.43 284.93 219.603C285.53 219.777 285.99 220.097 286.31 220.563C286.63 221.017 286.79 221.69 286.79 222.583V222.903C286.79 223.903 286.53 224.71 286.01 225.323C285.504 225.937 284.617 226.243 283.35 226.243H276.71ZM295.382 226.243V216.083L295.182 214.483H304.462C305.542 214.483 306.369 214.617 306.942 214.883C307.529 215.15 307.935 215.55 308.162 216.083C308.389 216.603 308.502 217.257 308.502 218.043V222.663C308.502 223.463 308.389 224.13 308.162 224.663C307.949 225.183 307.549 225.577 306.962 225.843C306.389 226.11 305.555 226.243 304.462 226.243H295.382ZM298.022 224.323H304.302C305.329 224.323 305.849 223.85 305.862 222.903V217.803C305.862 217.417 305.749 217.09 305.522 216.823C305.295 216.543 304.889 216.403 304.302 216.403H298.022V224.323ZM309.905 226.243L315.765 214.483H319.705L325.545 226.243H322.465L321.285 223.703H314.125L312.825 226.243H309.905ZM314.845 221.743H320.545L317.805 216.283H317.605L314.845 221.743ZM189.442 250.243C188.495 250.243 187.755 250.11 187.222 249.843C186.689 249.577 186.315 249.177 186.102 248.643C185.889 248.11 185.782 247.45 185.782 246.663V242.203C185.782 240.923 186.069 239.983 186.642 239.383C187.215 238.77 188.149 238.463 189.442 238.463H195.462C196.382 238.463 197.082 238.517 197.562 238.623C198.055 238.717 198.302 238.817 198.302 238.923L197.902 240.583C197.675 240.543 197.002 240.503 195.882 240.463C194.775 240.41 193.162 240.383 191.042 240.383H190.022C188.955 240.383 188.422 240.857 188.422 241.803V246.903C188.422 247.357 188.535 247.71 188.762 247.963C189.002 248.203 189.422 248.323 190.022 248.323H190.842C193.055 248.323 194.769 248.303 195.982 248.263C197.209 248.21 197.969 248.157 198.262 248.103L199.082 249.423C199.082 249.49 198.969 249.59 198.742 249.723C198.529 249.857 198.129 249.977 197.542 250.083C196.955 250.19 196.109 250.243 195.002 250.243H189.442ZM205.14 250.243C204.206 250.243 203.473 250.11 202.94 249.843C202.406 249.577 202.026 249.177 201.8 248.643C201.586 248.11 201.48 247.45 201.48 246.663V242.043C201.48 241.27 201.586 240.623 201.8 240.103C202.013 239.57 202.386 239.17 202.92 238.903C203.453 238.623 204.193 238.483 205.14 238.483H210.98C211.913 238.483 212.64 238.623 213.16 238.903C213.693 239.17 214.066 239.57 214.28 240.103C214.506 240.623 214.62 241.27 214.62 242.043V246.663C214.62 247.837 214.36 248.73 213.84 249.343C213.32 249.943 212.366 250.243 210.98 250.243H205.14ZM205.72 248.323H210.42C210.913 248.323 211.293 248.197 211.56 247.943C211.84 247.69 211.98 247.343 211.98 246.903V241.803C211.98 241.417 211.84 241.09 211.56 240.823C211.28 240.543 210.9 240.403 210.42 240.403H205.72C205.24 240.403 204.853 240.53 204.56 240.783C204.266 241.037 204.12 241.377 204.12 241.803V246.903C204.12 247.357 204.26 247.71 204.54 247.963C204.833 248.203 205.226 248.323 205.72 248.323ZM218.417 250.243V240.083L218.217 238.483H227.497C228.577 238.483 229.404 238.617 229.977 238.883C230.564 239.15 230.97 239.55 231.197 240.083C231.424 240.603 231.537 241.257 231.537 242.043V246.663C231.537 247.463 231.424 248.13 231.197 248.663C230.984 249.183 230.584 249.577 229.997 249.843C229.424 250.11 228.59 250.243 227.497 250.243H218.417ZM221.057 248.323H227.337C228.364 248.323 228.884 247.85 228.897 246.903V241.803C228.897 241.417 228.784 241.09 228.557 240.823C228.33 240.543 227.924 240.403 227.337 240.403H221.057V248.323ZM234.93 250.243V238.483H247.37V240.403H237.57V243.163H245.05V245.143H237.57V248.323H247.45L248.25 250.023C248.25 250.077 248.07 250.13 247.71 250.183C247.35 250.223 246.73 250.243 245.85 250.243H234.93ZM251.043 250.243V240.083L250.843 238.483H253.723L260.523 245.603L261.303 246.683H261.523V238.483H264.163V250.243H261.623L254.663 243.003L253.883 242.063H253.683V250.243H251.043ZM267.966 250.243V238.483H280.406V240.403H270.606V243.163H278.086V245.143H270.606V248.323H280.486L281.286 250.023C281.286 250.077 281.106 250.13 280.746 250.183C280.386 250.223 279.766 250.243 278.886 250.243H267.966ZM282.479 250.243L283.239 249.043L287.679 244.363L282.479 238.483H285.679L289.539 242.903H289.759L293.639 238.483H296.839L296.059 239.663L291.639 244.363L296.839 250.243H293.639L289.759 245.783H289.539L285.679 250.243H282.479ZM302.204 250.443C300.991 250.443 300.144 250.117 299.664 249.463C299.184 248.81 298.944 247.943 298.944 246.863V238.483H301.584V246.943C301.584 247.57 301.738 247.99 302.044 248.203C302.351 248.417 302.731 248.523 303.184 248.523H307.424C307.851 248.523 308.224 248.417 308.544 248.203C308.864 247.977 309.024 247.557 309.024 246.943V238.483H311.664V246.863C311.664 247.583 311.564 248.21 311.364 248.743C311.164 249.277 310.831 249.697 310.364 250.003C309.898 250.297 309.251 250.443 308.424 250.443H302.204ZM317.397 250.243C316.49 250.243 315.824 250.203 315.397 250.123C314.97 250.043 314.757 249.95 314.757 249.843L315.557 248.103C315.864 248.157 316.624 248.21 317.837 248.263C319.064 248.303 320.744 248.323 322.877 248.323H323.257C323.83 248.323 324.237 248.223 324.477 248.023C324.717 247.81 324.837 247.457 324.837 246.963V246.563C324.837 246.097 324.737 245.763 324.537 245.563C324.35 245.363 323.924 245.263 323.257 245.263H318.617C317.27 245.263 316.29 245.017 315.677 244.523C315.064 244.017 314.757 243.197 314.757 242.063V241.743C314.757 241.157 314.864 240.617 315.077 240.123C315.304 239.63 315.684 239.237 316.217 238.943C316.75 238.637 317.484 238.483 318.417 238.483H323.857C324.764 238.483 325.497 238.53 326.057 238.623C326.617 238.717 326.897 238.817 326.897 238.923L326.497 240.603C326.15 240.563 325.364 240.523 324.137 240.483C322.91 240.43 321.264 240.403 319.197 240.403L318.977 240.383C318.364 240.383 317.95 240.51 317.737 240.763C317.524 241.003 317.41 241.31 317.397 241.683V242.023C317.397 242.463 317.517 242.797 317.757 243.023C318.01 243.237 318.424 243.343 318.997 243.343H323.437C324.29 243.343 325.017 243.43 325.617 243.603C326.217 243.777 326.677 244.097 326.997 244.563C327.317 245.017 327.477 245.69 327.477 246.583V246.903C327.477 247.903 327.217 248.71 326.697 249.323C326.19 249.937 325.304 250.243 324.037 250.243H317.397Z" fill="#DEDBCC"/>
<rect width="112.29" height="112.29" transform="matrix(-0.692718 0.721208 0.692718 0.721208 546.35 284.031)" fill="#F2FF58" fill-opacity="0.1"/>
<rect width="37.1447" height="37.1447" transform="matrix(-0.71749 0.696569 0.71749 0.696569 458.053 0)" fill="#F2FF58" fill-opacity="0.1"/>
<rect width="43.4619" height="43.4619" transform="matrix(-0.692718 0.721208 0.692718 0.721208 515.099 381.832)" fill="#F2FF58" fill-opacity="0.1"/>
<rect width="78.031" height="78.031" transform="matrix(-0.692718 0.721208 0.692718 0.721208 458.053 161.969)" fill="#F2FF58" fill-opacity="0.1"/>
<rect width="146.44" height="146.44" transform="matrix(-0.692718 0.721208 0.692718 0.721208 505.768 51.6421)" fill="#F2FF58" fill-opacity="0.1"/>
<rect width="112.29" height="112.29" transform="matrix(-0.692718 0.721208 0.692718 0.721208 527.35 1065.03)" fill="#F2FF58" fill-opacity="0.1"/>
<rect width="37.1447" height="37.1447" transform="matrix(-0.71749 0.696569 0.71749 0.696569 439.053 781)" fill="#F2FF58" fill-opacity="0.1"/>
<rect width="43.4619" height="43.4619" transform="matrix(-0.692718 0.721208 0.692718 0.721208 496.099 1162.83)" fill="#F2FF58" fill-opacity="0.1"/>
<rect width="78.031" height="78.031" transform="matrix(-0.692718 0.721208 0.692718 0.721208 439.054 942.969)" fill="#F2FF58" fill-opacity="0.1"/>
<rect width="146.44" height="146.44" transform="matrix(-0.692718 0.721208 0.692718 0.721208 486.768 832.642)" fill="#F2FF58" fill-opacity="0.1"/>
<rect x="128" y="422.121" width="156.806" height="156.806" transform="rotate(45 128 422.121)" stroke="#F2FF58" stroke-opacity="0.8" stroke-width="3"/>
<path d="M71.3867 535L77.2467 523.24H81.1867L87.0267 535H83.9467L82.7667 532.46H75.6067L74.3067 535H71.3867ZM76.3267 530.5H82.0267L79.2867 525.04H79.0867L76.3267 530.5ZM88.8312 535V526.04H90.4712L91.2712 526.44C91.8312 526.333 92.5046 526.24 93.2912 526.16C94.0779 526.08 94.9779 526.04 95.9912 526.04H96.9912C97.6579 526.04 98.1712 526.133 98.5312 526.32C98.8912 526.507 99.1446 526.74 99.2912 527.02C99.4512 527.3 99.5446 527.587 99.5712 527.88C99.6112 528.16 99.6312 528.4 99.6312 528.6V535H97.1912V528.56C97.1912 528.027 96.8712 527.76 96.2312 527.76H91.8712C91.6179 527.76 91.4512 527.787 91.3712 527.84C91.3046 527.88 91.2712 528 91.2712 528.2V535H88.8312ZM105.117 535C104.103 535 103.37 534.767 102.917 534.3C102.463 533.82 102.237 533.167 102.237 532.34C102.237 531.473 102.47 530.807 102.937 530.34C103.417 529.873 104.143 529.64 105.117 529.64H106.137C107.137 529.64 108.037 529.667 108.837 529.72C109.637 529.773 110.297 529.827 110.817 529.88V528.56C110.817 528.44 110.803 528.32 110.777 528.2C110.75 528.067 110.67 527.96 110.537 527.88C110.403 527.8 110.177 527.76 109.857 527.76H108.857C107.403 527.76 106.19 527.787 105.217 527.84C104.243 527.88 103.583 527.92 103.237 527.96L103.017 526.44C103.017 526.253 103.523 526.14 104.537 526.1C105.55 526.06 107.243 526.04 109.617 526.04H110.617C111.283 526.04 111.797 526.133 112.157 526.32C112.517 526.507 112.77 526.74 112.917 527.02C113.077 527.3 113.17 527.587 113.197 527.88C113.237 528.16 113.257 528.4 113.257 528.6V535H111.617L110.837 534.6C110.277 534.693 109.603 534.787 108.817 534.88C108.03 534.96 107.13 535 106.117 535H105.117ZM105.637 533.28H110.217C110.51 533.28 110.683 533.253 110.737 533.2C110.79 533.147 110.817 532.98 110.817 532.7V531.16H105.637C105.277 531.16 105.023 531.247 104.877 531.42C104.743 531.593 104.677 531.867 104.677 532.24C104.677 532.613 104.757 532.88 104.917 533.04C105.077 533.2 105.317 533.28 105.637 533.28ZM107.557 524.64C107.557 524.467 107.617 524.227 107.737 523.92C107.87 523.6 108.017 523.287 108.177 522.98C108.337 522.66 108.463 522.42 108.557 522.26C108.677 522.073 108.823 521.933 108.997 521.84C109.183 521.733 109.437 521.68 109.757 521.68H109.977C110.497 521.68 110.757 521.873 110.757 522.26C110.757 522.46 110.63 522.713 110.377 523.02C110.137 523.327 109.843 523.627 109.497 523.92C109.163 524.2 108.85 524.433 108.557 524.62C108.343 524.753 108.123 524.853 107.897 524.92C107.67 524.987 107.557 524.893 107.557 524.64ZM116.364 535V523.92L116.164 522.32H118.804V535H116.364ZM123.223 524.78C122.73 524.78 122.37 524.68 122.143 524.48C121.916 524.28 121.803 523.947 121.803 523.48C121.803 523 121.91 522.667 122.123 522.48C122.35 522.28 122.716 522.18 123.223 522.18C123.73 522.18 124.096 522.28 124.323 522.48C124.55 522.667 124.663 523 124.663 523.48C124.663 523.933 124.55 524.267 124.323 524.48C124.096 524.68 123.73 524.78 123.223 524.78ZM122.003 535V526.04H124.443V535H122.003ZM129.917 535C129.024 535 128.39 534.953 128.017 534.86C127.644 534.767 127.457 534.673 127.457 534.58L128.057 533.08C128.444 533.12 129.15 533.167 130.177 533.22C131.217 533.26 132.497 533.28 134.017 533.28H135.017C135.35 533.28 135.557 533.193 135.637 533.02C135.73 532.833 135.777 532.587 135.777 532.28C135.777 531.973 135.724 531.727 135.617 531.54C135.524 531.353 135.324 531.26 135.017 531.26H130.097C129.164 531.26 128.49 531.087 128.077 530.74C127.664 530.38 127.457 529.847 127.457 529.14V528.34C127.457 528.153 127.477 527.933 127.517 527.68C127.557 527.427 127.657 527.173 127.817 526.92C127.977 526.667 128.237 526.46 128.597 526.3C128.957 526.127 129.457 526.04 130.097 526.04H135.617C136.417 526.04 136.984 526.087 137.317 526.18C137.65 526.273 137.817 526.367 137.817 526.46L137.617 527.96C137.23 527.92 136.517 527.88 135.477 527.84C134.437 527.787 133.164 527.76 131.657 527.76H130.657C130.324 527.76 130.11 527.853 130.017 528.04C129.937 528.213 129.897 528.42 129.897 528.66C129.897 528.913 129.937 529.127 130.017 529.3C130.11 529.46 130.324 529.54 130.657 529.54H135.577C136.484 529.54 137.15 529.727 137.577 530.1C138.004 530.473 138.217 530.947 138.217 531.52V532.7C138.217 532.94 138.197 533.193 138.157 533.46C138.13 533.727 138.037 533.98 137.877 534.22C137.717 534.447 137.457 534.633 137.097 534.78C136.737 534.927 136.23 535 135.577 535H129.917ZM143.451 535C142.784 535 142.271 534.913 141.911 534.74C141.551 534.567 141.291 534.347 141.131 534.08C140.984 533.813 140.891 533.533 140.851 533.24C140.824 532.947 140.811 532.68 140.811 532.44V528.6C140.811 528.4 140.824 528.16 140.851 527.88C140.891 527.587 140.984 527.3 141.131 527.02C141.291 526.74 141.551 526.507 141.911 526.32C142.284 526.133 142.798 526.04 143.451 526.04H147.751C148.631 526.04 149.318 526.127 149.811 526.3C150.318 526.46 150.671 526.727 150.871 527.1C151.084 527.473 151.191 527.973 151.191 528.6V531.56H147.691C146.491 531.56 145.511 531.533 144.751 531.48C144.004 531.427 143.504 531.393 143.251 531.38V532.48C143.238 533.013 143.558 533.28 144.211 533.28H145.231C145.951 533.28 146.651 533.273 147.331 533.26C148.024 533.233 148.658 533.207 149.231 533.18C149.804 533.14 150.264 533.107 150.611 533.08L151.411 534.38C151.411 534.793 150.098 535 147.471 535H143.451ZM143.251 529.84H148.751V528.56C148.751 528.293 148.718 528.107 148.651 528C148.598 527.893 148.424 527.827 148.131 527.8C147.838 527.773 147.338 527.76 146.631 527.76H144.211C143.571 527.76 143.251 528.027 143.251 528.56V529.84ZM161.448 535C160.781 535 160.268 534.913 159.908 534.74C159.548 534.567 159.288 534.347 159.128 534.08C158.981 533.813 158.888 533.533 158.848 533.24C158.821 532.947 158.808 532.68 158.808 532.44V528.6C158.808 528.4 158.821 528.16 158.848 527.88C158.888 527.587 158.981 527.3 159.128 527.02C159.288 526.74 159.548 526.507 159.908 526.32C160.281 526.133 160.794 526.04 161.448 526.04H162.468C163.694 526.04 164.681 526.067 165.428 526.12C166.188 526.16 166.768 526.207 167.168 526.26V522.32H169.608V535H167.968L167.188 534.6C166.628 534.693 165.954 534.787 165.168 534.88C164.381 534.96 163.474 535 162.448 535H161.448ZM162.208 533.28H166.548C166.828 533.28 167.001 533.247 167.068 533.18C167.134 533.113 167.168 532.947 167.168 532.68V527.9C166.714 527.873 166.141 527.847 165.448 527.82C164.754 527.78 164.014 527.76 163.228 527.76H162.208C161.568 527.76 161.248 528.027 161.248 528.56V532.48C161.248 533.013 161.568 533.28 162.208 533.28ZM175.251 535C174.584 535 174.071 534.913 173.711 534.74C173.351 534.567 173.091 534.347 172.931 534.08C172.784 533.813 172.691 533.533 172.651 533.24C172.624 532.947 172.611 532.68 172.611 532.44V528.6C172.611 528.4 172.624 528.16 172.651 527.88C172.691 527.587 172.784 527.3 172.931 527.02C173.091 526.74 173.351 526.507 173.711 526.32C174.084 526.133 174.598 526.04 175.251 526.04H179.551C180.431 526.04 181.118 526.127 181.611 526.3C182.118 526.46 182.471 526.727 182.671 527.1C182.884 527.473 182.991 527.973 182.991 528.6V531.56H179.491C178.291 531.56 177.311 531.533 176.551 531.48C175.804 531.427 175.304 531.393 175.051 531.38V532.48C175.038 533.013 175.358 533.28 176.011 533.28H177.031C177.751 533.28 178.451 533.273 179.131 533.26C179.824 533.233 180.458 533.207 181.031 533.18C181.604 533.14 182.064 533.107 182.411 533.08L183.211 534.38C183.211 534.793 181.898 535 179.271 535H175.251ZM175.051 529.84H180.551V528.56C180.551 528.293 180.518 528.107 180.451 528C180.398 527.893 180.224 527.827 179.931 527.8C179.638 527.773 179.138 527.76 178.431 527.76H176.011C175.371 527.76 175.051 528.027 175.051 528.56V529.84ZM94.6547 559V548.84L94.4547 547.24H103.735C104.815 547.24 105.641 547.373 106.215 547.64C106.801 547.907 107.208 548.307 107.435 548.84C107.661 549.36 107.775 550.013 107.775 550.8V555.42C107.775 556.22 107.661 556.887 107.435 557.42C107.221 557.94 106.821 558.333 106.235 558.6C105.661 558.867 104.828 559 103.735 559H94.6547ZM97.2947 557.08H103.575C104.601 557.08 105.121 556.607 105.135 555.66V550.56C105.135 550.173 105.021 549.847 104.795 549.58C104.568 549.3 104.161 549.16 103.575 549.16H97.2947V557.08ZM113.348 559C112.335 559 111.601 558.767 111.148 558.3C110.695 557.82 110.468 557.167 110.468 556.34C110.468 555.473 110.701 554.807 111.168 554.34C111.648 553.873 112.375 553.64 113.348 553.64H114.368C115.368 553.64 116.268 553.667 117.068 553.72C117.868 553.773 118.528 553.827 119.048 553.88V552.56C119.048 552.44 119.035 552.32 119.008 552.2C118.981 552.067 118.901 551.96 118.768 551.88C118.635 551.8 118.408 551.76 118.088 551.76H117.088C115.635 551.76 114.421 551.787 113.448 551.84C112.475 551.88 111.815 551.92 111.468 551.96L111.248 550.44C111.248 550.253 111.755 550.14 112.768 550.1C113.781 550.06 115.475 550.04 117.848 550.04H118.848C119.515 550.04 120.028 550.133 120.388 550.32C120.748 550.507 121.001 550.74 121.148 551.02C121.308 551.3 121.401 551.587 121.428 551.88C121.468 552.16 121.488 552.4 121.488 552.6V559H119.848L119.068 558.6C118.508 558.693 117.835 558.787 117.048 558.88C116.261 558.96 115.361 559 114.348 559H113.348ZM113.868 557.28H118.448C118.741 557.28 118.915 557.253 118.968 557.2C119.021 557.147 119.048 556.98 119.048 556.7V555.16H113.868C113.508 555.16 113.255 555.247 113.108 555.42C112.975 555.593 112.908 555.867 112.908 556.24C112.908 556.613 112.988 556.88 113.148 557.04C113.308 557.2 113.548 557.28 113.868 557.28ZM126.835 559C126.169 559 125.655 558.913 125.295 558.74C124.935 558.567 124.675 558.347 124.515 558.08C124.369 557.813 124.275 557.533 124.235 557.24C124.209 556.947 124.195 556.68 124.195 556.44V552.6C124.195 552.4 124.209 552.16 124.235 551.88C124.275 551.587 124.369 551.3 124.515 551.02C124.675 550.74 124.935 550.507 125.295 550.32C125.669 550.133 126.182 550.04 126.835 550.04H127.855C129.082 550.04 130.069 550.067 130.815 550.12C131.575 550.16 132.155 550.207 132.555 550.26V546.32H134.995V559H133.355L132.575 558.6C132.015 558.693 131.342 558.787 130.555 558.88C129.769 558.96 128.862 559 127.835 559H126.835ZM127.595 557.28H131.935C132.215 557.28 132.389 557.247 132.455 557.18C132.522 557.113 132.555 556.947 132.555 556.68V551.9C132.102 551.873 131.529 551.847 130.835 551.82C130.142 551.78 129.402 551.76 128.615 551.76H127.595C126.955 551.76 126.635 552.027 126.635 552.56V556.48C126.635 557.013 126.955 557.28 127.595 557.28ZM140.638 559C139.745 559 139.078 558.82 138.638 558.46C138.212 558.1 137.998 557.513 137.998 556.7V552.6C137.998 552.4 138.012 552.16 138.038 551.88C138.078 551.587 138.172 551.3 138.318 551.02C138.478 550.74 138.738 550.507 139.098 550.32C139.472 550.133 139.985 550.04 140.638 550.04H146.158C146.825 550.04 147.338 550.133 147.698 550.32C148.058 550.507 148.312 550.74 148.458 551.02C148.618 551.3 148.712 551.587 148.738 551.88C148.778 552.16 148.798 552.4 148.798 552.6V556.44C148.798 556.68 148.778 556.947 148.738 557.24C148.712 557.533 148.618 557.813 148.458 558.08C148.298 558.347 148.038 558.567 147.678 558.74C147.318 558.913 146.812 559 146.158 559H140.638ZM141.398 557.28H145.398C146.052 557.28 146.378 557.013 146.378 556.48V552.56C146.378 552.027 146.052 551.76 145.398 551.76H141.398C140.758 551.76 140.438 552.027 140.438 552.56V556.48C140.438 557.013 140.758 557.28 141.398 557.28ZM153.851 559C152.958 559 152.325 558.953 151.951 558.86C151.578 558.767 151.391 558.673 151.391 558.58L151.991 557.08C152.378 557.12 153.085 557.167 154.111 557.22C155.151 557.26 156.431 557.28 157.951 557.28H158.951C159.285 557.28 159.491 557.193 159.571 557.02C159.665 556.833 159.711 556.587 159.711 556.28C159.711 555.973 159.658 555.727 159.551 555.54C159.458 555.353 159.258 555.26 158.951 555.26H154.031C153.098 555.26 152.425 555.087 152.011 554.74C151.598 554.38 151.391 553.847 151.391 553.14V552.34C151.391 552.153 151.411 551.933 151.451 551.68C151.491 551.427 151.591 551.173 151.751 550.92C151.911 550.667 152.171 550.46 152.531 550.3C152.891 550.127 153.391 550.04 154.031 550.04H159.551C160.351 550.04 160.918 550.087 161.251 550.18C161.585 550.273 161.751 550.367 161.751 550.46L161.551 551.96C161.165 551.92 160.451 551.88 159.411 551.84C158.371 551.787 157.098 551.76 155.591 551.76H154.591C154.258 551.76 154.045 551.853 153.951 552.04C153.871 552.213 153.831 552.42 153.831 552.66C153.831 552.913 153.871 553.127 153.951 553.3C154.045 553.46 154.258 553.54 154.591 553.54H159.511C160.418 553.54 161.085 553.727 161.511 554.1C161.938 554.473 162.151 554.947 162.151 555.52V556.7C162.151 556.94 162.131 557.193 162.091 557.46C162.065 557.727 161.971 557.98 161.811 558.22C161.651 558.447 161.391 558.633 161.031 558.78C160.671 558.927 160.165 559 159.511 559H153.851Z" fill="#DEDBCC"/>
<rect y="2.12132" width="159.16" height="159.16" transform="matrix(-0.707107 0.707107 0.707107 0.707107 387.164 418.621)" stroke="#F2FF58" stroke-opacity="0.8" stroke-width="3"/>
<path d="M368.923 525L374.783 513.24H378.723L384.563 525H381.483L380.303 522.46H373.143L371.843 525H368.923ZM373.863 520.5H379.563L376.823 515.04H376.623L373.863 520.5ZM386.568 525V513.92L386.368 512.32H389.008V525H386.568ZM395.487 525C394.473 525 393.78 524.787 393.407 524.36C393.033 523.933 392.847 523.293 392.847 522.44V517.76H391.207V516.04H392.047C392.3 516.04 392.48 516 392.587 515.92C392.707 515.84 392.793 515.68 392.847 515.44L393.247 513.3H395.287V516.04H399.447V517.76H395.287V522.46C395.287 522.793 395.367 523.013 395.527 523.12C395.687 523.227 395.927 523.28 396.247 523.28H399.067L399.267 524.8C398.987 524.84 398.56 524.887 397.987 524.94C397.413 524.98 396.787 525 396.107 525H395.487ZM404.23 525C403.216 525 402.483 524.767 402.03 524.3C401.576 523.82 401.35 523.167 401.35 522.34C401.35 521.473 401.583 520.807 402.05 520.34C402.53 519.873 403.256 519.64 404.23 519.64H405.25C406.25 519.64 407.15 519.667 407.95 519.72C408.75 519.773 409.41 519.827 409.93 519.88V518.56C409.93 518.44 409.916 518.32 409.89 518.2C409.863 518.067 409.783 517.96 409.65 517.88C409.516 517.8 409.29 517.76 408.97 517.76H407.97C406.516 517.76 405.303 517.787 404.33 517.84C403.356 517.88 402.696 517.92 402.35 517.96L402.13 516.44C402.13 516.253 402.636 516.14 403.65 516.1C404.663 516.06 406.356 516.04 408.73 516.04H409.73C410.396 516.04 410.91 516.133 411.27 516.32C411.63 516.507 411.883 516.74 412.03 517.02C412.19 517.3 412.283 517.587 412.31 517.88C412.35 518.16 412.37 518.4 412.37 518.6V525H410.73L409.95 524.6C409.39 524.693 408.716 524.787 407.93 524.88C407.143 524.96 406.243 525 405.23 525H404.23ZM404.75 523.28H409.33C409.623 523.28 409.796 523.253 409.85 523.2C409.903 523.147 409.93 522.98 409.93 522.7V521.16H404.75C404.39 521.16 404.136 521.247 403.99 521.42C403.856 521.593 403.79 521.867 403.79 522.24C403.79 522.613 403.87 522.88 404.03 523.04C404.19 523.2 404.43 523.28 404.75 523.28ZM321.355 549V538.84L321.155 537.22H330.015C330.868 537.22 331.535 537.333 332.015 537.56C332.508 537.787 332.868 538.087 333.095 538.46C333.335 538.82 333.488 539.207 333.555 539.62C333.621 540.033 333.655 540.427 333.655 540.8V541.98C333.655 542.287 333.608 542.633 333.515 543.02C333.421 543.393 333.248 543.76 332.995 544.12C332.741 544.467 332.375 544.76 331.895 545C331.415 545.227 330.788 545.34 330.015 545.34H327.975C327.135 545.34 326.348 545.32 325.615 545.28C324.895 545.24 324.355 545.207 323.995 545.18V549H321.355ZM323.995 543.42H329.435C330.035 543.42 330.448 543.273 330.675 542.98C330.901 542.687 331.015 542.333 331.015 541.92V540.66C331.015 540.233 330.901 539.873 330.675 539.58C330.448 539.287 330.041 539.14 329.455 539.14H323.995V543.42ZM339.088 549C338.421 549 337.908 548.913 337.548 548.74C337.188 548.567 336.928 548.347 336.768 548.08C336.621 547.813 336.528 547.533 336.488 547.24C336.461 546.947 336.448 546.68 336.448 546.44V542.6C336.448 542.4 336.461 542.16 336.488 541.88C336.528 541.587 336.621 541.3 336.768 541.02C336.928 540.74 337.188 540.507 337.548 540.32C337.921 540.133 338.434 540.04 339.088 540.04H343.388C344.268 540.04 344.954 540.127 345.448 540.3C345.954 540.46 346.308 540.727 346.508 541.1C346.721 541.473 346.828 541.973 346.828 542.6V545.56H343.328C342.128 545.56 341.148 545.533 340.388 545.48C339.641 545.427 339.141 545.393 338.888 545.38V546.48C338.874 547.013 339.194 547.28 339.848 547.28H340.868C341.588 547.28 342.288 547.273 342.968 547.26C343.661 547.233 344.294 547.207 344.868 547.18C345.441 547.14 345.901 547.107 346.248 547.08L347.048 548.38C347.048 548.793 345.734 549 343.108 549H339.088ZM338.888 543.84H344.388V542.56C344.388 542.293 344.354 542.107 344.288 542C344.234 541.893 344.061 541.827 343.768 541.8C343.474 541.773 342.974 541.76 342.268 541.76H339.848C339.208 541.76 338.888 542.027 338.888 542.56V543.84ZM349.65 549V540.04H351.29L352.05 540.44C352.397 540.253 352.77 540.107 353.17 540C353.57 539.893 354.077 539.84 354.69 539.84C355.663 539.84 356.45 539.947 357.05 540.16C357.663 540.373 358.07 540.533 358.27 540.64L357.57 542.38C357.41 542.3 357.143 542.2 356.77 542.08C356.41 541.947 355.983 541.827 355.49 541.72C354.997 541.613 354.457 541.56 353.87 541.56H353.65C353.01 541.56 352.59 541.687 352.39 541.94C352.203 542.193 352.103 542.613 352.09 543.2V549H349.65ZM360.71 549V541.76H359.47V540.06H360.71V538.28C360.71 537.827 360.796 537.407 360.97 537.02C361.156 536.633 361.456 536.32 361.87 536.08C362.296 535.84 362.856 535.72 363.55 535.72H364.55C366.15 535.72 367.296 535.793 367.99 535.94C368.696 536.087 369.05 536.213 369.05 536.32L368.45 537.84C368.223 537.747 367.816 537.66 367.23 537.58C366.643 537.487 365.936 537.44 365.11 537.44H364.11C363.776 537.44 363.53 537.5 363.37 537.62C363.223 537.74 363.15 537.947 363.15 538.24V540.06H367.31V541.76H363.15V549H360.71ZM372.079 549C371.186 549 370.519 548.82 370.079 548.46C369.652 548.1 369.439 547.513 369.439 546.7V542.6C369.439 542.4 369.452 542.16 369.479 541.88C369.519 541.587 369.612 541.3 369.759 541.02C369.919 540.74 370.179 540.507 370.539 540.32C370.912 540.133 371.426 540.04 372.079 540.04H377.599C378.266 540.04 378.779 540.133 379.139 540.32C379.499 540.507 379.752 540.74 379.899 541.02C380.059 541.3 380.152 541.587 380.179 541.88C380.219 542.16 380.239 542.4 380.239 542.6V546.44C380.239 546.68 380.219 546.947 380.179 547.24C380.152 547.533 380.059 547.813 379.899 548.08C379.739 548.347 379.479 548.567 379.119 548.74C378.759 548.913 378.252 549 377.599 549H372.079ZM372.839 547.28H376.839C377.492 547.28 377.819 547.013 377.819 546.48V542.56C377.819 542.027 377.492 541.76 376.839 541.76H372.839C372.199 541.76 371.879 542.027 371.879 542.56V546.48C371.879 547.013 372.199 547.28 372.839 547.28ZM383.032 549V540.04H384.672L385.432 540.44C385.779 540.253 386.152 540.107 386.552 540C386.952 539.893 387.459 539.84 388.072 539.84C389.045 539.84 389.832 539.947 390.432 540.16C391.045 540.373 391.452 540.533 391.652 540.64L390.952 542.38C390.792 542.3 390.525 542.2 390.152 542.08C389.792 541.947 389.365 541.827 388.872 541.72C388.379 541.613 387.839 541.56 387.252 541.56H387.032C386.392 541.56 385.972 541.687 385.772 541.94C385.585 542.193 385.485 542.613 385.472 543.2V549H383.032ZM393.652 549V540.04H395.292L395.792 540.28C396.178 540.213 396.652 540.16 397.212 540.12C397.772 540.067 398.438 540.04 399.212 540.04H400.212C400.598 540.04 400.972 540.093 401.332 540.2C401.692 540.293 401.958 540.433 402.132 540.62C402.478 540.447 402.958 540.307 403.572 540.2C404.185 540.093 404.985 540.04 405.972 540.04H406.972C407.638 540.04 408.152 540.133 408.512 540.32C408.872 540.507 409.125 540.74 409.272 541.02C409.432 541.3 409.525 541.587 409.552 541.88C409.592 542.16 409.612 542.4 409.612 542.6V549H407.172V542.56C407.172 542.027 406.852 541.76 406.212 541.76H403.412C403.198 541.76 403.052 541.787 402.972 541.84C402.892 541.893 402.852 542.013 402.852 542.2V549H400.412V542.56C400.412 542.027 400.092 541.76 399.452 541.76H396.692C396.438 541.76 396.272 541.787 396.192 541.84C396.125 541.88 396.092 542 396.092 542.2V549H393.652ZM415.093 549C414.08 549 413.347 548.767 412.893 548.3C412.44 547.82 412.213 547.167 412.213 546.34C412.213 545.473 412.447 544.807 412.913 544.34C413.393 543.873 414.12 543.64 415.093 543.64H416.113C417.113 543.64 418.013 543.667 418.813 543.72C419.613 543.773 420.273 543.827 420.793 543.88V542.56C420.793 542.44 420.78 542.32 420.753 542.2C420.727 542.067 420.647 541.96 420.513 541.88C420.38 541.8 420.153 541.76 419.833 541.76H418.833C417.38 541.76 416.167 541.787 415.193 541.84C414.22 541.88 413.56 541.92 413.213 541.96L412.993 540.44C412.993 540.253 413.5 540.14 414.513 540.1C415.527 540.06 417.22 540.04 419.593 540.04H420.593C421.26 540.04 421.773 540.133 422.133 540.32C422.493 540.507 422.747 540.74 422.893 541.02C423.053 541.3 423.147 541.587 423.173 541.88C423.213 542.16 423.233 542.4 423.233 542.6V549H421.593L420.813 548.6C420.253 548.693 419.58 548.787 418.793 548.88C418.007 548.96 417.107 549 416.093 549H415.093ZM415.613 547.28H420.193C420.487 547.28 420.66 547.253 420.713 547.2C420.767 547.147 420.793 546.98 420.793 546.7V545.16H415.613C415.253 545.16 415 545.247 414.853 545.42C414.72 545.593 414.653 545.867 414.653 546.24C414.653 546.613 414.733 546.88 414.893 547.04C415.053 547.2 415.293 547.28 415.613 547.28ZM426.141 549V540.04H427.781L428.581 540.44C429.141 540.333 429.814 540.24 430.601 540.16C431.387 540.08 432.287 540.04 433.301 540.04H434.301C434.967 540.04 435.481 540.133 435.841 540.32C436.201 540.507 436.454 540.74 436.601 541.02C436.761 541.3 436.854 541.587 436.881 541.88C436.921 542.16 436.941 542.4 436.941 542.6V549H434.501V542.56C434.501 542.027 434.181 541.76 433.541 541.76H429.181C428.927 541.76 428.761 541.787 428.681 541.84C428.614 541.88 428.581 542 428.581 542.2V549H426.141ZM442.286 549C441.619 549 441.106 548.913 440.746 548.74C440.386 548.567 440.126 548.347 439.966 548.08C439.819 547.813 439.726 547.533 439.686 547.24C439.659 546.947 439.646 546.68 439.646 546.44V542.6C439.646 542.4 439.659 542.16 439.686 541.88C439.726 541.587 439.819 541.3 439.966 541.02C440.126 540.74 440.386 540.507 440.746 540.32C441.119 540.133 441.633 540.04 442.286 540.04H445.066C446.733 540.04 447.913 540.087 448.606 540.18C449.313 540.26 449.666 540.347 449.666 540.44L449.266 541.96C448.893 541.933 448.419 541.907 447.846 541.88C447.273 541.84 446.653 541.813 445.986 541.8C445.333 541.773 444.693 541.76 444.066 541.76H443.046C442.406 541.76 442.086 542.027 442.086 542.56V546.48C442.073 547.013 442.393 547.28 443.046 547.28H444.066C444.786 547.28 445.486 547.273 446.166 547.26C446.859 547.233 447.493 547.207 448.066 547.18C448.639 547.14 449.099 547.107 449.446 547.08L450.246 548.38C450.246 548.793 448.933 549 446.306 549H442.286ZM454.683 549C454.016 549 453.503 548.913 453.143 548.74C452.783 548.567 452.523 548.347 452.363 548.08C452.216 547.813 452.123 547.533 452.083 547.24C452.056 546.947 452.043 546.68 452.043 546.44V542.6C452.043 542.4 452.056 542.16 452.083 541.88C452.123 541.587 452.216 541.3 452.363 541.02C452.523 540.74 452.783 540.507 453.143 540.32C453.516 540.133 454.03 540.04 454.683 540.04H458.983C459.863 540.04 460.55 540.127 461.043 540.3C461.55 540.46 461.903 540.727 462.103 541.1C462.316 541.473 462.423 541.973 462.423 542.6V545.56H458.923C457.723 545.56 456.743 545.533 455.983 545.48C455.236 545.427 454.736 545.393 454.483 545.38V546.48C454.47 547.013 454.79 547.28 455.443 547.28H456.463C457.183 547.28 457.883 547.273 458.563 547.26C459.256 547.233 459.89 547.207 460.463 547.18C461.036 547.14 461.496 547.107 461.843 547.08L462.643 548.38C462.643 548.793 461.33 549 458.703 549H454.683ZM454.483 543.84H459.983V542.56C459.983 542.293 459.95 542.107 459.883 542C459.83 541.893 459.656 541.827 459.363 541.8C459.07 541.773 458.57 541.76 457.863 541.76H455.443C454.803 541.76 454.483 542.027 454.483 542.56V543.84Z" fill="#DEDBCC"/>
<rect y="2.12132" width="159.16" height="159.16" transform="matrix(-0.707107 0.707107 0.707107 0.707107 255.164 657.621)" stroke="#F2FF58" stroke-opacity="0.8" stroke-width="3"/>
<path d="M214.63 768V757.84L214.43 756.24H223.71C224.79 756.24 225.616 756.373 226.19 756.64C226.776 756.907 227.183 757.307 227.41 757.84C227.636 758.36 227.75 759.013 227.75 759.8V764.42C227.75 765.22 227.636 765.887 227.41 766.42C227.196 766.94 226.796 767.333 226.21 767.6C225.636 767.867 224.803 768 223.71 768H214.63ZM217.27 766.08H223.55C224.576 766.08 225.096 765.607 225.11 764.66V759.56C225.11 759.173 224.996 758.847 224.77 758.58C224.543 758.3 224.136 758.16 223.55 758.16H217.27V766.08ZM233.183 768C232.516 768 232.003 767.913 231.643 767.74C231.283 767.567 231.023 767.347 230.863 767.08C230.716 766.813 230.623 766.533 230.583 766.24C230.556 765.947 230.543 765.68 230.543 765.44V761.6C230.543 761.4 230.556 761.16 230.583 760.88C230.623 760.587 230.716 760.3 230.863 760.02C231.023 759.74 231.283 759.507 231.643 759.32C232.016 759.133 232.53 759.04 233.183 759.04H237.483C238.363 759.04 239.05 759.127 239.543 759.3C240.05 759.46 240.403 759.727 240.603 760.1C240.816 760.473 240.923 760.973 240.923 761.6V764.56H237.423C236.223 764.56 235.243 764.533 234.483 764.48C233.736 764.427 233.236 764.393 232.983 764.38V765.48C232.97 766.013 233.29 766.28 233.943 766.28H234.963C235.683 766.28 236.383 766.273 237.063 766.26C237.756 766.233 238.39 766.207 238.963 766.18C239.536 766.14 239.996 766.107 240.343 766.08L241.143 767.38C241.143 767.793 239.83 768 237.203 768H233.183ZM232.983 762.84H238.483V761.56C238.483 761.293 238.45 761.107 238.383 761C238.33 760.893 238.156 760.827 237.863 760.8C237.57 760.773 237.07 760.76 236.363 760.76H233.943C233.303 760.76 232.983 761.027 232.983 761.56V762.84ZM246.185 768C245.519 768 245.005 767.913 244.645 767.74C244.285 767.567 244.025 767.347 243.865 767.08C243.719 766.813 243.625 766.533 243.585 766.24C243.559 765.947 243.545 765.68 243.545 765.44V761.6C243.545 761.4 243.559 761.16 243.585 760.88C243.625 760.587 243.719 760.3 243.865 760.02C244.025 759.74 244.285 759.507 244.645 759.32C245.019 759.133 245.532 759.04 246.185 759.04H248.965C250.632 759.04 251.812 759.087 252.505 759.18C253.212 759.26 253.565 759.347 253.565 759.44L253.165 760.96C252.792 760.933 252.319 760.907 251.745 760.88C251.172 760.84 250.552 760.813 249.885 760.8C249.232 760.773 248.592 760.76 247.965 760.76H246.945C246.305 760.76 245.985 761.027 245.985 761.56V765.48C245.972 766.013 246.292 766.28 246.945 766.28H247.965C248.685 766.28 249.385 766.273 250.065 766.26C250.759 766.233 251.392 766.207 251.965 766.18C252.539 766.14 252.999 766.107 253.345 766.08L254.145 767.38C254.145 767.793 252.832 768 250.205 768H246.185ZM257.562 757.78C257.069 757.78 256.709 757.68 256.482 757.48C256.256 757.28 256.142 756.947 256.142 756.48C256.142 756 256.249 755.667 256.462 755.48C256.689 755.28 257.056 755.18 257.562 755.18C258.069 755.18 258.436 755.28 258.662 755.48C258.889 755.667 259.002 756 259.002 756.48C259.002 756.933 258.889 757.267 258.662 757.48C258.436 757.68 258.069 757.78 257.562 757.78ZM256.342 768V759.04H258.782V768H256.342ZM264.256 768C263.363 768 262.729 767.953 262.356 767.86C261.983 767.767 261.796 767.673 261.796 767.58L262.396 766.08C262.783 766.12 263.489 766.167 264.516 766.22C265.556 766.26 266.836 766.28 268.356 766.28H269.356C269.689 766.28 269.896 766.193 269.976 766.02C270.069 765.833 270.116 765.587 270.116 765.28C270.116 764.973 270.063 764.727 269.956 764.54C269.863 764.353 269.663 764.26 269.356 764.26H264.436C263.503 764.26 262.829 764.087 262.416 763.74C262.003 763.38 261.796 762.847 261.796 762.14V761.34C261.796 761.153 261.816 760.933 261.856 760.68C261.896 760.427 261.996 760.173 262.156 759.92C262.316 759.667 262.576 759.46 262.936 759.3C263.296 759.127 263.796 759.04 264.436 759.04H269.956C270.756 759.04 271.323 759.087 271.656 759.18C271.989 759.273 272.156 759.367 272.156 759.46L271.956 760.96C271.569 760.92 270.856 760.88 269.816 760.84C268.776 760.787 267.503 760.76 265.996 760.76H264.996C264.663 760.76 264.449 760.853 264.356 761.04C264.276 761.213 264.236 761.42 264.236 761.66C264.236 761.913 264.276 762.127 264.356 762.3C264.449 762.46 264.663 762.54 264.996 762.54H269.916C270.823 762.54 271.489 762.727 271.916 763.1C272.343 763.473 272.556 763.947 272.556 764.52V765.7C272.556 765.94 272.536 766.193 272.496 766.46C272.469 766.727 272.376 766.98 272.216 767.22C272.056 767.447 271.796 767.633 271.436 767.78C271.076 767.927 270.569 768 269.916 768H264.256ZM277.93 768C276.917 768 276.183 767.767 275.73 767.3C275.277 766.82 275.05 766.167 275.05 765.34C275.05 764.473 275.283 763.807 275.75 763.34C276.23 762.873 276.957 762.64 277.93 762.64H278.95C279.95 762.64 280.85 762.667 281.65 762.72C282.45 762.773 283.11 762.827 283.63 762.88V761.56C283.63 761.44 283.617 761.32 283.59 761.2C283.563 761.067 283.483 760.96 283.35 760.88C283.217 760.8 282.99 760.76 282.67 760.76H281.67C280.217 760.76 279.003 760.787 278.03 760.84C277.057 760.88 276.397 760.92 276.05 760.96L275.83 759.44C275.83 759.253 276.337 759.14 277.35 759.1C278.363 759.06 280.057 759.04 282.43 759.04H283.43C284.097 759.04 284.61 759.133 284.97 759.32C285.33 759.507 285.583 759.74 285.73 760.02C285.89 760.3 285.983 760.587 286.01 760.88C286.05 761.16 286.07 761.4 286.07 761.6V768H284.43L283.65 767.6C283.09 767.693 282.417 767.787 281.63 767.88C280.843 767.96 279.943 768 278.93 768H277.93ZM278.45 766.28H283.03C283.323 766.28 283.497 766.253 283.55 766.2C283.603 766.147 283.63 765.98 283.63 765.7V764.16H278.45C278.09 764.16 277.837 764.247 277.69 764.42C277.557 764.593 277.49 764.867 277.49 765.24C277.49 765.613 277.57 765.88 277.73 766.04C277.89 766.2 278.13 766.28 278.45 766.28ZM282.47 758C282.097 758 281.77 757.933 281.49 757.8C281.223 757.653 280.983 757.487 280.77 757.3C280.557 757.113 280.343 756.953 280.13 756.82C279.93 756.673 279.703 756.6 279.45 756.6C279.117 756.6 278.883 756.72 278.75 756.96C278.63 757.187 278.537 757.4 278.47 757.6C278.417 757.76 278.323 757.873 278.19 757.94C278.057 757.993 277.93 757.98 277.81 757.9C277.703 757.82 277.65 757.66 277.65 757.42C277.65 756.833 277.817 756.32 278.15 755.88C278.497 755.427 278.997 755.2 279.65 755.2C280.023 755.2 280.337 755.273 280.59 755.42C280.857 755.553 281.09 755.713 281.29 755.9C281.503 756.087 281.717 756.253 281.93 756.4C282.157 756.533 282.41 756.6 282.69 756.6C282.997 756.6 283.223 756.487 283.37 756.26C283.517 756.02 283.617 755.8 283.67 755.6C283.723 755.427 283.81 755.313 283.93 755.26C284.063 755.193 284.19 755.2 284.31 755.28C284.43 755.36 284.49 755.527 284.49 755.78C284.49 756.14 284.417 756.493 284.27 756.84C284.137 757.173 283.917 757.453 283.61 757.68C283.317 757.893 282.937 758 282.47 758ZM291.417 768C290.524 768 289.857 767.82 289.417 767.46C288.991 767.1 288.777 766.513 288.777 765.7V761.6C288.777 761.4 288.791 761.16 288.817 760.88C288.857 760.587 288.951 760.3 289.097 760.02C289.257 759.74 289.517 759.507 289.877 759.32C290.251 759.133 290.764 759.04 291.417 759.04H296.937C297.604 759.04 298.117 759.133 298.477 759.32C298.837 759.507 299.091 759.74 299.237 760.02C299.397 760.3 299.491 760.587 299.517 760.88C299.557 761.16 299.577 761.4 299.577 761.6V765.44C299.577 765.68 299.557 765.947 299.517 766.24C299.491 766.533 299.397 766.813 299.237 767.08C299.077 767.347 298.817 767.567 298.457 767.74C298.097 767.913 297.591 768 296.937 768H291.417ZM292.177 766.28H296.177C296.831 766.28 297.157 766.013 297.157 765.48V761.56C297.157 761.027 296.831 760.76 296.177 760.76H292.177C291.537 760.76 291.217 761.027 291.217 761.56V765.48C291.217 766.013 291.537 766.28 292.177 766.28ZM217.167 792C216.234 792 215.5 791.867 214.967 791.6C214.434 791.333 214.054 790.933 213.827 790.4C213.614 789.867 213.507 789.207 213.507 788.42V783.8C213.507 783.027 213.614 782.38 213.827 781.86C214.04 781.327 214.414 780.927 214.947 780.66C215.48 780.38 216.22 780.24 217.167 780.24H223.007C223.94 780.24 224.667 780.38 225.187 780.66C225.72 780.927 226.094 781.327 226.307 781.86C226.534 782.38 226.647 783.027 226.647 783.8V788.42C226.647 789.593 226.387 790.487 225.867 791.1C225.347 791.7 224.394 792 223.007 792H217.167ZM217.747 790.08H222.447C222.94 790.08 223.32 789.953 223.587 789.7C223.867 789.447 224.007 789.1 224.007 788.66V783.56C224.007 783.173 223.867 782.847 223.587 782.58C223.307 782.3 222.927 782.16 222.447 782.16H217.747C217.267 782.16 216.88 782.287 216.587 782.54C216.294 782.793 216.147 783.133 216.147 783.56V788.66C216.147 789.113 216.287 789.467 216.567 789.72C216.86 789.96 217.254 790.08 217.747 790.08ZM229.845 792V779.32H232.285V783.28C232.858 783.213 233.531 783.16 234.305 783.12C235.091 783.067 235.985 783.04 236.985 783.04H238.005C238.671 783.04 239.185 783.127 239.545 783.3C239.905 783.473 240.158 783.693 240.305 783.96C240.465 784.227 240.558 784.507 240.585 784.8C240.625 785.093 240.645 785.36 240.645 785.6V789.44C240.645 789.64 240.625 789.887 240.585 790.18C240.558 790.46 240.465 790.74 240.305 791.02C240.158 791.3 239.905 791.533 239.545 791.72C239.185 791.907 238.671 792 238.005 792H236.985C235.878 792 234.911 791.973 234.085 791.92C233.258 791.853 232.571 791.787 232.025 791.72L231.485 792H229.845ZM232.905 790.28H237.245C237.885 790.28 238.205 790.013 238.205 789.48V785.56C238.218 785.267 238.158 785.06 238.025 784.94C237.891 784.82 237.631 784.76 237.245 784.76H236.245C235.391 784.76 234.631 784.78 233.965 784.82C233.311 784.847 232.751 784.88 232.285 784.92V789.66C232.285 789.94 232.311 790.113 232.365 790.18C232.431 790.247 232.611 790.28 232.905 790.28ZM245.112 781.78C244.619 781.78 244.259 781.68 244.032 781.48C243.806 781.28 243.692 780.94 243.692 780.46C243.692 779.993 243.799 779.667 244.012 779.48C244.239 779.28 244.606 779.18 245.112 779.18C245.619 779.18 245.986 779.28 246.212 779.48C246.439 779.667 246.552 779.993 246.552 780.46C246.552 780.927 246.439 781.267 246.212 781.48C245.986 781.68 245.619 781.78 245.112 781.78ZM243.032 795.52C242.646 795.52 242.272 795.487 241.912 795.42C241.539 795.367 241.239 795.293 241.012 795.2C240.772 795.107 240.652 795.013 240.652 794.92L241.052 793.72C241.212 793.76 241.446 793.8 241.752 793.84C242.046 793.893 242.359 793.92 242.692 793.92C243.052 793.92 243.339 793.833 243.552 793.66C243.779 793.487 243.892 793.133 243.892 792.6V783.04H246.332V792.6C246.332 793.333 246.192 793.913 245.912 794.34C245.646 794.767 245.286 795.067 244.832 795.24C244.379 795.427 243.866 795.52 243.292 795.52H243.032ZM252 792C251.333 792 250.82 791.913 250.46 791.74C250.1 791.567 249.84 791.347 249.68 791.08C249.533 790.813 249.44 790.533 249.4 790.24C249.373 789.947 249.36 789.68 249.36 789.44V785.6C249.36 785.4 249.373 785.16 249.4 784.88C249.44 784.587 249.533 784.3 249.68 784.02C249.84 783.74 250.1 783.507 250.46 783.32C250.833 783.133 251.347 783.04 252 783.04H256.3C257.18 783.04 257.867 783.127 258.36 783.3C258.867 783.46 259.22 783.727 259.42 784.1C259.633 784.473 259.74 784.973 259.74 785.6V788.56H256.24C255.04 788.56 254.06 788.533 253.3 788.48C252.553 788.427 252.053 788.393 251.8 788.38V789.48C251.787 790.013 252.107 790.28 252.76 790.28H253.78C254.5 790.28 255.2 790.273 255.88 790.26C256.573 790.233 257.207 790.207 257.78 790.18C258.353 790.14 258.813 790.107 259.16 790.08L259.96 791.38C259.96 791.793 258.647 792 256.02 792H252ZM251.8 786.84H257.3V785.56C257.3 785.293 257.267 785.107 257.2 785C257.147 784.893 256.973 784.827 256.68 784.8C256.387 784.773 255.887 784.76 255.18 784.76H252.76C252.12 784.76 251.8 785.027 251.8 785.56V786.84ZM266.043 792C265.029 792 264.336 791.787 263.963 791.36C263.589 790.933 263.403 790.293 263.403 789.44V784.76H261.763V783.04H262.603C262.856 783.04 263.036 783 263.143 782.92C263.263 782.84 263.349 782.68 263.403 782.44L263.803 780.3H265.843V783.04H270.003V784.76H265.843V789.46C265.843 789.793 265.923 790.013 266.083 790.12C266.243 790.227 266.483 790.28 266.803 790.28H269.623L269.823 791.8C269.543 791.84 269.116 791.887 268.543 791.94C267.969 791.98 267.343 792 266.663 792H266.043ZM273.625 781.78C273.132 781.78 272.772 781.68 272.545 781.48C272.319 781.28 272.205 780.947 272.205 780.48C272.205 780 272.312 779.667 272.525 779.48C272.752 779.28 273.119 779.18 273.625 779.18C274.132 779.18 274.499 779.28 274.725 779.48C274.952 779.667 275.065 780 275.065 780.48C275.065 780.933 274.952 781.267 274.725 781.48C274.499 781.68 274.132 781.78 273.625 781.78ZM272.405 792V783.04H274.845V792H272.405ZM281.179 792L277.059 783.04H279.859L282.159 788.56L282.679 790H282.879L283.399 788.56L285.739 783.04H288.459L288.139 784.26L284.379 792H281.179ZM292.646 792C291.632 792 290.899 791.767 290.446 791.3C289.992 790.82 289.766 790.167 289.766 789.34C289.766 788.473 289.999 787.807 290.466 787.34C290.946 786.873 291.672 786.64 292.646 786.64H293.666C294.666 786.64 295.566 786.667 296.366 786.72C297.166 786.773 297.826 786.827 298.346 786.88V785.56C298.346 785.44 298.332 785.32 298.306 785.2C298.279 785.067 298.199 784.96 298.066 784.88C297.932 784.8 297.706 784.76 297.386 784.76H296.386C294.932 784.76 293.719 784.787 292.746 784.84C291.772 784.88 291.112 784.92 290.766 784.96L290.546 783.44C290.546 783.253 291.052 783.14 292.066 783.1C293.079 783.06 294.772 783.04 297.146 783.04H298.146C298.812 783.04 299.326 783.133 299.686 783.32C300.046 783.507 300.299 783.74 300.446 784.02C300.606 784.3 300.699 784.587 300.726 784.88C300.766 785.16 300.786 785.4 300.786 785.6V792H299.146L298.366 791.6C297.806 791.693 297.132 791.787 296.346 791.88C295.559 791.96 294.659 792 293.646 792H292.646ZM293.166 790.28H297.746C298.039 790.28 298.212 790.253 298.266 790.2C298.319 790.147 298.346 789.98 298.346 789.7V788.16H293.166C292.806 788.16 292.552 788.247 292.406 788.42C292.272 788.593 292.206 788.867 292.206 789.24C292.206 789.613 292.286 789.88 292.446 790.04C292.606 790.2 292.846 790.28 293.166 790.28Z" fill="#DEDBCC"/>
<rect y="2.12132" width="158.954" height="158.954" transform="matrix(-0.707107 0.707107 0.707107 0.707107 255.846 920.276)" stroke="#F2FF58" stroke-opacity="0.8" stroke-width="3"/>
<path d="M212.024 1026V1014.24H224.464V1016.16H214.664V1018.92H222.144V1020.9H214.664V1024.08H224.544L225.344 1025.78C225.344 1025.83 225.164 1025.89 224.804 1025.94C224.444 1025.98 223.824 1026 222.944 1026H212.024ZM230.657 1026L226.537 1017.04H229.337L231.637 1022.56L232.157 1024H232.357L232.877 1022.56L235.217 1017.04H237.937L237.617 1018.26L233.857 1026H230.657ZM242.374 1026C241.48 1026 240.814 1025.82 240.374 1025.46C239.947 1025.1 239.734 1024.51 239.734 1023.7V1019.6C239.734 1019.4 239.747 1019.16 239.774 1018.88C239.814 1018.59 239.907 1018.3 240.054 1018.02C240.214 1017.74 240.474 1017.51 240.834 1017.32C241.207 1017.13 241.72 1017.04 242.374 1017.04H247.894C248.56 1017.04 249.074 1017.13 249.434 1017.32C249.794 1017.51 250.047 1017.74 250.194 1018.02C250.354 1018.3 250.447 1018.59 250.474 1018.88C250.514 1019.16 250.534 1019.4 250.534 1019.6V1023.44C250.534 1023.68 250.514 1023.95 250.474 1024.24C250.447 1024.53 250.354 1024.81 250.194 1025.08C250.034 1025.35 249.774 1025.57 249.414 1025.74C249.054 1025.91 248.547 1026 247.894 1026H242.374ZM243.134 1024.28H247.134C247.787 1024.28 248.114 1024.01 248.114 1023.48V1019.56C248.114 1019.03 247.787 1018.76 247.134 1018.76H243.134C242.494 1018.76 242.174 1019.03 242.174 1019.56V1023.48C242.174 1024.01 242.494 1024.28 243.134 1024.28ZM253.527 1026V1014.92L253.327 1013.32H255.967V1026H253.527ZM261.606 1026C260.952 1026 260.439 1025.91 260.066 1025.74C259.706 1025.57 259.446 1025.35 259.286 1025.08C259.139 1024.81 259.046 1024.53 259.006 1024.24C258.979 1023.95 258.966 1023.68 258.966 1023.44V1017.04H261.406V1023.48C261.392 1023.77 261.486 1023.98 261.686 1024.1C261.899 1024.22 262.126 1024.28 262.366 1024.28H266.326C266.619 1024.28 266.792 1024.25 266.846 1024.2C266.899 1024.15 266.926 1023.97 266.926 1023.68V1017.04H269.366V1026H267.726L266.966 1025.6C266.432 1025.71 265.799 1025.8 265.066 1025.88C264.346 1025.96 263.532 1026 262.626 1026H261.606ZM274.799 1026C274.132 1026 273.619 1025.91 273.259 1025.74C272.899 1025.57 272.639 1025.35 272.479 1025.08C272.332 1024.81 272.239 1024.53 272.199 1024.24C272.172 1023.95 272.159 1023.68 272.159 1023.44V1019.6C272.159 1019.4 272.172 1019.16 272.199 1018.88C272.239 1018.59 272.332 1018.3 272.479 1018.02C272.639 1017.74 272.899 1017.51 273.259 1017.32C273.632 1017.13 274.145 1017.04 274.799 1017.04H277.579C279.245 1017.04 280.425 1017.09 281.119 1017.18C281.825 1017.26 282.179 1017.35 282.179 1017.44L281.779 1018.96C281.405 1018.93 280.932 1018.91 280.359 1018.88C279.785 1018.84 279.165 1018.81 278.499 1018.8C277.845 1018.77 277.205 1018.76 276.579 1018.76H275.559C274.919 1018.76 274.599 1019.03 274.599 1019.56V1023.48C274.585 1024.01 274.905 1024.28 275.559 1024.28H276.579C277.299 1024.28 277.999 1024.27 278.679 1024.26C279.372 1024.23 280.005 1024.21 280.579 1024.18C281.152 1024.14 281.612 1024.11 281.959 1024.08L282.759 1025.38C282.759 1025.79 281.445 1026 278.819 1026H274.799ZM277.059 1030.4C276.485 1030.4 276.012 1030.29 275.639 1030.06C275.265 1029.83 274.999 1029.59 274.839 1029.34C274.772 1029.23 274.739 1029.12 274.739 1029C274.739 1028.89 274.779 1028.81 274.859 1028.74C274.939 1028.67 275.045 1028.66 275.179 1028.7C275.432 1028.77 275.692 1028.83 275.959 1028.9C276.239 1028.97 276.552 1029 276.899 1029C277.552 1029 277.879 1028.79 277.879 1028.38C277.879 1028.09 277.679 1027.89 277.279 1027.8C276.892 1027.72 276.445 1027.69 275.939 1027.7C276.019 1027.46 276.139 1027.17 276.299 1026.84C276.459 1026.52 276.619 1026.24 276.779 1026C276.939 1025.76 277.119 1025.64 277.319 1025.64C277.519 1025.64 277.599 1025.76 277.559 1026C277.519 1026.2 277.479 1026.38 277.439 1026.54C277.412 1026.7 277.385 1026.85 277.359 1027C277.945 1027.05 278.392 1027.22 278.699 1027.5C279.019 1027.79 279.179 1028.19 279.179 1028.7C279.179 1029.18 278.992 1029.58 278.619 1029.9C278.245 1030.23 277.725 1030.4 277.059 1030.4ZM287.335 1026C286.322 1026 285.589 1025.77 285.135 1025.3C284.682 1024.82 284.455 1024.17 284.455 1023.34C284.455 1022.47 284.689 1021.81 285.155 1021.34C285.635 1020.87 286.362 1020.64 287.335 1020.64H288.355C289.355 1020.64 290.255 1020.67 291.055 1020.72C291.855 1020.77 292.515 1020.83 293.035 1020.88V1019.56C293.035 1019.44 293.022 1019.32 292.995 1019.2C292.969 1019.07 292.889 1018.96 292.755 1018.88C292.622 1018.8 292.395 1018.76 292.075 1018.76H291.075C289.622 1018.76 288.409 1018.79 287.435 1018.84C286.462 1018.88 285.802 1018.92 285.455 1018.96L285.235 1017.44C285.235 1017.25 285.742 1017.14 286.755 1017.1C287.769 1017.06 289.462 1017.04 291.835 1017.04H292.835C293.502 1017.04 294.015 1017.13 294.375 1017.32C294.735 1017.51 294.989 1017.74 295.135 1018.02C295.295 1018.3 295.389 1018.59 295.415 1018.88C295.455 1019.16 295.475 1019.4 295.475 1019.6V1026H293.835L293.055 1025.6C292.495 1025.69 291.822 1025.79 291.035 1025.88C290.249 1025.96 289.349 1026 288.335 1026H287.335ZM287.855 1024.28H292.435C292.729 1024.28 292.902 1024.25 292.955 1024.2C293.009 1024.15 293.035 1023.98 293.035 1023.7V1022.16H287.855C287.495 1022.16 287.242 1022.25 287.095 1022.42C286.962 1022.59 286.895 1022.87 286.895 1023.24C286.895 1023.61 286.975 1023.88 287.135 1024.04C287.295 1024.2 287.535 1024.28 287.855 1024.28ZM291.875 1016C291.502 1016 291.175 1015.93 290.895 1015.8C290.629 1015.65 290.389 1015.49 290.175 1015.3C289.962 1015.11 289.749 1014.95 289.535 1014.82C289.335 1014.67 289.109 1014.6 288.855 1014.6C288.522 1014.6 288.289 1014.72 288.155 1014.96C288.035 1015.19 287.942 1015.4 287.875 1015.6C287.822 1015.76 287.729 1015.87 287.595 1015.94C287.462 1015.99 287.335 1015.98 287.215 1015.9C287.109 1015.82 287.055 1015.66 287.055 1015.42C287.055 1014.83 287.222 1014.32 287.555 1013.88C287.902 1013.43 288.402 1013.2 289.055 1013.2C289.429 1013.2 289.742 1013.27 289.995 1013.42C290.262 1013.55 290.495 1013.71 290.695 1013.9C290.909 1014.09 291.122 1014.25 291.335 1014.4C291.562 1014.53 291.815 1014.6 292.095 1014.6C292.402 1014.6 292.629 1014.49 292.775 1014.26C292.922 1014.02 293.022 1013.8 293.075 1013.6C293.129 1013.43 293.215 1013.31 293.335 1013.26C293.469 1013.19 293.595 1013.2 293.715 1013.28C293.835 1013.36 293.895 1013.53 293.895 1013.78C293.895 1014.14 293.822 1014.49 293.675 1014.84C293.542 1015.17 293.322 1015.45 293.015 1015.68C292.722 1015.89 292.342 1016 291.875 1016ZM300.823 1026C299.929 1026 299.263 1025.82 298.823 1025.46C298.396 1025.1 298.183 1024.51 298.183 1023.7V1019.6C298.183 1019.4 298.196 1019.16 298.223 1018.88C298.263 1018.59 298.356 1018.3 298.503 1018.02C298.663 1017.74 298.923 1017.51 299.283 1017.32C299.656 1017.13 300.169 1017.04 300.823 1017.04H306.343C307.009 1017.04 307.523 1017.13 307.883 1017.32C308.243 1017.51 308.496 1017.74 308.643 1018.02C308.803 1018.3 308.896 1018.59 308.923 1018.88C308.963 1019.16 308.983 1019.4 308.983 1019.6V1023.44C308.983 1023.68 308.963 1023.95 308.923 1024.24C308.896 1024.53 308.803 1024.81 308.643 1025.08C308.483 1025.35 308.223 1025.57 307.863 1025.74C307.503 1025.91 306.996 1026 306.343 1026H300.823ZM301.583 1024.28H305.583C306.236 1024.28 306.563 1024.01 306.563 1023.48V1019.56C306.563 1019.03 306.236 1018.76 305.583 1018.76H301.583C300.943 1018.76 300.623 1019.03 300.623 1019.56V1023.48C300.623 1024.01 300.943 1024.28 301.583 1024.28ZM207.974 1050C207.028 1050 206.288 1049.87 205.754 1049.6C205.221 1049.33 204.848 1048.93 204.634 1048.4C204.421 1047.87 204.314 1047.21 204.314 1046.42V1041.96C204.314 1040.68 204.601 1039.74 205.174 1039.14C205.748 1038.53 206.681 1038.22 207.974 1038.22H213.994C214.914 1038.22 215.614 1038.27 216.094 1038.38C216.588 1038.47 216.834 1038.57 216.834 1038.68L216.434 1040.34C216.208 1040.3 215.534 1040.26 214.414 1040.22C213.308 1040.17 211.694 1040.14 209.574 1040.14H208.554C207.488 1040.14 206.954 1040.61 206.954 1041.56V1046.66C206.954 1047.11 207.068 1047.47 207.294 1047.72C207.534 1047.96 207.954 1048.08 208.554 1048.08H209.374C211.588 1048.08 213.301 1048.06 214.514 1048.02C215.741 1047.97 216.501 1047.91 216.794 1047.86L217.614 1049.18C217.614 1049.25 217.501 1049.35 217.274 1049.48C217.061 1049.61 216.661 1049.73 216.074 1049.84C215.488 1049.95 214.641 1050 213.534 1050H207.974ZM222.252 1050C221.359 1050 220.692 1049.82 220.252 1049.46C219.825 1049.1 219.612 1048.51 219.612 1047.7V1043.6C219.612 1043.4 219.625 1043.16 219.652 1042.88C219.692 1042.59 219.785 1042.3 219.932 1042.02C220.092 1041.74 220.352 1041.51 220.712 1041.32C221.085 1041.13 221.599 1041.04 222.252 1041.04H227.772C228.439 1041.04 228.952 1041.13 229.312 1041.32C229.672 1041.51 229.925 1041.74 230.072 1042.02C230.232 1042.3 230.325 1042.59 230.352 1042.88C230.392 1043.16 230.412 1043.4 230.412 1043.6V1047.44C230.412 1047.68 230.392 1047.95 230.352 1048.24C230.325 1048.53 230.232 1048.81 230.072 1049.08C229.912 1049.35 229.652 1049.57 229.292 1049.74C228.932 1049.91 228.425 1050 227.772 1050H222.252ZM223.012 1048.28H227.012C227.665 1048.28 227.992 1048.01 227.992 1047.48V1043.56C227.992 1043.03 227.665 1042.76 227.012 1042.76H223.012C222.372 1042.76 222.052 1043.03 222.052 1043.56V1047.48C222.052 1048.01 222.372 1048.28 223.012 1048.28ZM233.205 1050V1041.04H234.845L235.645 1041.44C236.205 1041.33 236.878 1041.24 237.665 1041.16C238.452 1041.08 239.352 1041.04 240.365 1041.04H241.365C242.032 1041.04 242.545 1041.13 242.905 1041.32C243.265 1041.51 243.518 1041.74 243.665 1042.02C243.825 1042.3 243.918 1042.59 243.945 1042.88C243.985 1043.16 244.005 1043.4 244.005 1043.6V1050H241.565V1043.56C241.565 1043.03 241.245 1042.76 240.605 1042.76H236.245C235.992 1042.76 235.825 1042.79 235.745 1042.84C235.678 1042.88 235.645 1043 235.645 1043.2V1050H233.205ZM249.171 1050C248.277 1050 247.644 1049.95 247.271 1049.86C246.897 1049.77 246.711 1049.67 246.711 1049.58L247.311 1048.08C247.697 1048.12 248.404 1048.17 249.431 1048.22C250.471 1048.26 251.751 1048.28 253.271 1048.28H254.271C254.604 1048.28 254.811 1048.19 254.891 1048.02C254.984 1047.83 255.031 1047.59 255.031 1047.28C255.031 1046.97 254.977 1046.73 254.871 1046.54C254.777 1046.35 254.577 1046.26 254.271 1046.26H249.351C248.417 1046.26 247.744 1046.09 247.331 1045.74C246.917 1045.38 246.711 1044.85 246.711 1044.14V1043.34C246.711 1043.15 246.731 1042.93 246.771 1042.68C246.811 1042.43 246.911 1042.17 247.071 1041.92C247.231 1041.67 247.491 1041.46 247.851 1041.3C248.211 1041.13 248.711 1041.04 249.351 1041.04H254.871C255.671 1041.04 256.237 1041.09 256.571 1041.18C256.904 1041.27 257.071 1041.37 257.071 1041.46L256.871 1042.96C256.484 1042.92 255.771 1042.88 254.731 1042.84C253.691 1042.79 252.417 1042.76 250.911 1042.76H249.911C249.577 1042.76 249.364 1042.85 249.271 1043.04C249.191 1043.21 249.151 1043.42 249.151 1043.66C249.151 1043.91 249.191 1044.13 249.271 1044.3C249.364 1044.46 249.577 1044.54 249.911 1044.54H254.831C255.737 1044.54 256.404 1044.73 256.831 1045.1C257.257 1045.47 257.471 1045.95 257.471 1046.52V1047.7C257.471 1047.94 257.451 1048.19 257.411 1048.46C257.384 1048.73 257.291 1048.98 257.131 1049.22C256.971 1049.45 256.711 1049.63 256.351 1049.78C255.991 1049.93 255.484 1050 254.831 1050H249.171ZM263.744 1050C262.731 1050 262.038 1049.79 261.664 1049.36C261.291 1048.93 261.104 1048.29 261.104 1047.44V1042.76H259.464V1041.04H260.304C260.558 1041.04 260.738 1041 260.844 1040.92C260.964 1040.84 261.051 1040.68 261.104 1040.44L261.504 1038.3H263.544V1041.04H267.704V1042.76H263.544V1047.46C263.544 1047.79 263.624 1048.01 263.784 1048.12C263.944 1048.23 264.184 1048.28 264.504 1048.28H267.324L267.524 1049.8C267.244 1049.84 266.818 1049.89 266.244 1049.94C265.671 1049.98 265.044 1050 264.364 1050H263.744ZM272.487 1050C271.474 1050 270.741 1049.77 270.287 1049.3C269.834 1048.82 269.607 1048.17 269.607 1047.34C269.607 1046.47 269.841 1045.81 270.307 1045.34C270.787 1044.87 271.514 1044.64 272.487 1044.64H273.507C274.507 1044.64 275.407 1044.67 276.207 1044.72C277.007 1044.77 277.667 1044.83 278.187 1044.88V1043.56C278.187 1043.44 278.174 1043.32 278.147 1043.2C278.121 1043.07 278.041 1042.96 277.907 1042.88C277.774 1042.8 277.547 1042.76 277.227 1042.76H276.227C274.774 1042.76 273.561 1042.79 272.587 1042.84C271.614 1042.88 270.954 1042.92 270.607 1042.96L270.387 1041.44C270.387 1041.25 270.894 1041.14 271.907 1041.1C272.921 1041.06 274.614 1041.04 276.987 1041.04H277.987C278.654 1041.04 279.167 1041.13 279.527 1041.32C279.887 1041.51 280.141 1041.74 280.287 1042.02C280.447 1042.3 280.541 1042.59 280.567 1042.88C280.607 1043.16 280.627 1043.4 280.627 1043.6V1050H278.987L278.207 1049.6C277.647 1049.69 276.974 1049.79 276.187 1049.88C275.401 1049.96 274.501 1050 273.487 1050H272.487ZM273.007 1048.28H277.587C277.881 1048.28 278.054 1048.25 278.107 1048.2C278.161 1048.15 278.187 1047.98 278.187 1047.7V1046.16H273.007C272.647 1046.16 272.394 1046.25 272.247 1046.42C272.114 1046.59 272.047 1046.87 272.047 1047.24C272.047 1047.61 272.127 1047.88 272.287 1048.04C272.447 1048.2 272.687 1048.28 273.007 1048.28ZM283.535 1050V1041.04H285.175L285.975 1041.44C286.535 1041.33 287.208 1041.24 287.995 1041.16C288.781 1041.08 289.681 1041.04 290.695 1041.04H291.695C292.361 1041.04 292.875 1041.13 293.235 1041.32C293.595 1041.51 293.848 1041.74 293.995 1042.02C294.155 1042.3 294.248 1042.59 294.275 1042.88C294.315 1043.16 294.335 1043.4 294.335 1043.6V1050H291.895V1043.56C291.895 1043.03 291.575 1042.76 290.935 1042.76H286.575C286.321 1042.76 286.155 1042.79 286.075 1042.84C286.008 1042.88 285.975 1043 285.975 1043.2V1050H283.535ZM300.72 1050C299.707 1050 299.014 1049.79 298.64 1049.36C298.267 1048.93 298.08 1048.29 298.08 1047.44V1042.76H296.44V1041.04H297.28C297.534 1041.04 297.714 1041 297.82 1040.92C297.94 1040.84 298.027 1040.68 298.08 1040.44L298.48 1038.3H300.52V1041.04H304.68V1042.76H300.52V1047.46C300.52 1047.79 300.6 1048.01 300.76 1048.12C300.92 1048.23 301.16 1048.28 301.48 1048.28H304.3L304.5 1049.8C304.22 1049.84 303.794 1049.89 303.22 1049.94C302.647 1049.98 302.02 1050 301.34 1050H300.72ZM309.323 1050C308.657 1050 308.143 1049.91 307.783 1049.74C307.423 1049.57 307.163 1049.35 307.003 1049.08C306.857 1048.81 306.763 1048.53 306.723 1048.24C306.697 1047.95 306.683 1047.68 306.683 1047.44V1043.6C306.683 1043.4 306.697 1043.16 306.723 1042.88C306.763 1042.59 306.857 1042.3 307.003 1042.02C307.163 1041.74 307.423 1041.51 307.783 1041.32C308.157 1041.13 308.67 1041.04 309.323 1041.04H313.623C314.503 1041.04 315.19 1041.13 315.683 1041.3C316.19 1041.46 316.543 1041.73 316.743 1042.1C316.957 1042.47 317.063 1042.97 317.063 1043.6V1046.56H313.563C312.363 1046.56 311.383 1046.53 310.623 1046.48C309.877 1046.43 309.377 1046.39 309.123 1046.38V1047.48C309.11 1048.01 309.43 1048.28 310.083 1048.28H311.103C311.823 1048.28 312.523 1048.27 313.203 1048.26C313.897 1048.23 314.53 1048.21 315.103 1048.18C315.677 1048.14 316.137 1048.11 316.483 1048.08L317.283 1049.38C317.283 1049.79 315.97 1050 313.343 1050H309.323ZM309.123 1044.84H314.623V1043.56C314.623 1043.29 314.59 1043.11 314.523 1043C314.47 1042.89 314.297 1042.83 314.003 1042.8C313.71 1042.77 313.21 1042.76 312.503 1042.76H310.083C309.443 1042.76 309.123 1043.03 309.123 1043.56V1044.84Z" fill="#DEDBCC"/>
</svg>
