<svg width="2411" height="855" viewBox="0 0 2411 855" fill="none" xmlns="http://www.w3.org/2000/svg">
<rect x="1205.33" y="225.942" width="290.016" height="290.016" transform="rotate(45 1205.33 225.942)" fill="#032425"/>
<rect x="1205.33" y="228.063" width="287.016" height="287.016" transform="rotate(45 1205.33 228.063)" stroke="#F2FF58" stroke-opacity="0.8" stroke-width="3"/>
<rect x="1205.33" y="225" width="290.016" height="290.016" transform="rotate(45 1205.33 225)" fill="#032425"/>
<rect x="1205.33" y="227.121" width="287.016" height="287.016" transform="rotate(45 1205.33 227.121)" stroke="#F2FF58" stroke-opacity="0.8" stroke-width="3"/>
<rect x="897.246" y="446.035" width="287.016" height="287.016" transform="rotate(45 897.246 446.035)" stroke="#F2FF58" stroke-opacity="0.8" stroke-width="3"/>
<path d="M805.373 655.906L811.233 644.146H815.173L821.013 655.906H817.933L816.753 653.366H809.593L808.293 655.906H805.373ZM810.313 651.406H816.013L813.273 645.946H813.073L810.313 651.406ZM823.018 655.906V644.826L822.818 643.226H825.458V655.906H823.018ZM831.937 655.906C830.924 655.906 830.23 655.692 829.857 655.266C829.484 654.839 829.297 654.199 829.297 653.346V648.666H827.657V646.946H828.497C828.75 646.946 828.93 646.906 829.037 646.826C829.157 646.746 829.244 646.586 829.297 646.346L829.697 644.206H831.737V646.946H835.897V648.666H831.737V653.366C831.737 653.699 831.817 653.919 831.977 654.026C832.137 654.132 832.377 654.186 832.697 654.186H835.517L835.717 655.706C835.437 655.746 835.01 655.792 834.437 655.846C833.864 655.886 833.237 655.906 832.557 655.906H831.937ZM840.68 655.906C839.667 655.906 838.933 655.672 838.48 655.206C838.027 654.726 837.8 654.072 837.8 653.246C837.8 652.379 838.033 651.712 838.5 651.246C838.98 650.779 839.707 650.546 840.68 650.546H841.7C842.7 650.546 843.6 650.572 844.4 650.626C845.2 650.679 845.86 650.732 846.38 650.786V649.466C846.38 649.346 846.367 649.226 846.34 649.106C846.313 648.972 846.233 648.866 846.1 648.786C845.967 648.706 845.74 648.666 845.42 648.666H844.42C842.967 648.666 841.753 648.692 840.78 648.746C839.807 648.786 839.147 648.826 838.8 648.866L838.58 647.346C838.58 647.159 839.087 647.046 840.1 647.006C841.113 646.966 842.807 646.946 845.18 646.946H846.18C846.847 646.946 847.36 647.039 847.72 647.226C848.08 647.412 848.333 647.646 848.48 647.926C848.64 648.206 848.733 648.492 848.76 648.786C848.8 649.066 848.82 649.306 848.82 649.506V655.906H847.18L846.4 655.506C845.84 655.599 845.167 655.692 844.38 655.786C843.593 655.866 842.693 655.906 841.68 655.906H840.68ZM841.2 654.186H845.78C846.073 654.186 846.247 654.159 846.3 654.106C846.353 654.052 846.38 653.886 846.38 653.606V652.066H841.2C840.84 652.066 840.587 652.152 840.44 652.326C840.307 652.499 840.24 652.772 840.24 653.146C840.24 653.519 840.32 653.786 840.48 653.946C840.64 654.106 840.88 654.186 841.2 654.186ZM857.322 655.906V645.746L857.122 644.126H865.982C866.835 644.126 867.502 644.239 867.982 644.466C868.475 644.692 868.835 644.992 869.062 645.366C869.302 645.726 869.455 646.112 869.522 646.526C869.589 646.939 869.622 647.332 869.622 647.706V648.886C869.622 649.192 869.575 649.539 869.482 649.926C869.389 650.299 869.215 650.666 868.962 651.026C868.709 651.372 868.342 651.666 867.862 651.906C867.382 652.132 866.755 652.246 865.982 652.246H863.942C863.102 652.246 862.315 652.226 861.582 652.186C860.862 652.146 860.322 652.112 859.962 652.086V655.906H857.322ZM859.962 650.326H865.402C866.002 650.326 866.415 650.179 866.642 649.886C866.869 649.592 866.982 649.239 866.982 648.826V647.566C866.982 647.139 866.869 646.779 866.642 646.486C866.415 646.192 866.009 646.046 865.422 646.046H859.962V650.326ZM875.055 655.906C874.388 655.906 873.875 655.819 873.515 655.646C873.155 655.472 872.895 655.252 872.735 654.986C872.588 654.719 872.495 654.439 872.455 654.146C872.428 653.852 872.415 653.586 872.415 653.346V649.506C872.415 649.306 872.428 649.066 872.455 648.786C872.495 648.492 872.588 648.206 872.735 647.926C872.895 647.646 873.155 647.412 873.515 647.226C873.888 647.039 874.402 646.946 875.055 646.946H879.355C880.235 646.946 880.922 647.032 881.415 647.206C881.922 647.366 882.275 647.632 882.475 648.006C882.688 648.379 882.795 648.879 882.795 649.506V652.466H879.295C878.095 652.466 877.115 652.439 876.355 652.386C875.608 652.332 875.108 652.299 874.855 652.286V653.386C874.842 653.919 875.162 654.186 875.815 654.186H876.835C877.555 654.186 878.255 654.179 878.935 654.166C879.628 654.139 880.262 654.112 880.835 654.086C881.408 654.046 881.868 654.012 882.215 653.986L883.015 655.286C883.015 655.699 881.702 655.906 879.075 655.906H875.055ZM874.855 650.746H880.355V649.466C880.355 649.199 880.322 649.012 880.255 648.906C880.202 648.799 880.028 648.732 879.735 648.706C879.442 648.679 878.942 648.666 878.235 648.666H875.815C875.175 648.666 874.855 648.932 874.855 649.466V650.746ZM885.617 655.906V646.946H887.257L888.017 647.346C888.364 647.159 888.737 647.012 889.137 646.906C889.537 646.799 890.044 646.746 890.657 646.746C891.631 646.746 892.417 646.852 893.017 647.066C893.631 647.279 894.037 647.439 894.237 647.546L893.537 649.286C893.377 649.206 893.111 649.106 892.737 648.986C892.377 648.852 891.951 648.732 891.457 648.626C890.964 648.519 890.424 648.466 889.837 648.466H889.617C888.977 648.466 888.557 648.592 888.357 648.846C888.171 649.099 888.071 649.519 888.057 650.106V655.906H885.617ZM896.677 655.906V648.666H895.437V646.966H896.677V645.186C896.677 644.732 896.763 644.312 896.937 643.926C897.123 643.539 897.423 643.226 897.837 642.986C898.263 642.746 898.823 642.626 899.517 642.626H900.517C902.117 642.626 903.263 642.699 903.957 642.846C904.663 642.992 905.017 643.119 905.017 643.226L904.417 644.746C904.19 644.652 903.783 644.566 903.197 644.486C902.61 644.392 901.903 644.346 901.077 644.346H900.077C899.743 644.346 899.497 644.406 899.337 644.526C899.19 644.646 899.117 644.852 899.117 645.146V646.966H903.277V648.666H899.117V655.906H896.677ZM908.046 655.906C907.153 655.906 906.486 655.726 906.046 655.366C905.62 655.006 905.406 654.419 905.406 653.606V649.506C905.406 649.306 905.42 649.066 905.446 648.786C905.486 648.492 905.58 648.206 905.726 647.926C905.886 647.646 906.146 647.412 906.506 647.226C906.88 647.039 907.393 646.946 908.046 646.946H913.566C914.233 646.946 914.746 647.039 915.106 647.226C915.466 647.412 915.72 647.646 915.866 647.926C916.026 648.206 916.12 648.492 916.146 648.786C916.186 649.066 916.206 649.306 916.206 649.506V653.346C916.206 653.586 916.186 653.852 916.146 654.146C916.12 654.439 916.026 654.719 915.866 654.986C915.706 655.252 915.446 655.472 915.086 655.646C914.726 655.819 914.22 655.906 913.566 655.906H908.046ZM908.806 654.186H912.806C913.46 654.186 913.786 653.919 913.786 653.386V649.466C913.786 648.932 913.46 648.666 912.806 648.666H908.806C908.166 648.666 907.846 648.932 907.846 649.466V653.386C907.846 653.919 908.166 654.186 908.806 654.186ZM918.999 655.906V646.946H920.639L921.139 647.186C921.526 647.119 921.999 647.066 922.559 647.026C923.119 646.972 923.786 646.946 924.559 646.946H925.559C925.946 646.946 926.319 646.999 926.679 647.106C927.039 647.199 927.306 647.339 927.479 647.526C927.826 647.352 928.306 647.212 928.919 647.106C929.533 646.999 930.333 646.946 931.319 646.946H932.319C932.986 646.946 933.499 647.039 933.859 647.226C934.219 647.412 934.473 647.646 934.619 647.926C934.779 648.206 934.873 648.492 934.899 648.786C934.939 649.066 934.959 649.306 934.959 649.506V655.906H932.519V649.466C932.519 648.932 932.199 648.666 931.559 648.666H928.759C928.546 648.666 928.399 648.692 928.319 648.746C928.239 648.799 928.199 648.919 928.199 649.106V655.906H925.759V649.466C925.759 648.932 925.439 648.666 924.799 648.666H922.039C921.786 648.666 921.619 648.692 921.539 648.746C921.473 648.786 921.439 648.906 921.439 649.106V655.906H918.999ZM940.441 655.906C939.428 655.906 938.694 655.672 938.241 655.206C937.788 654.726 937.561 654.072 937.561 653.246C937.561 652.379 937.794 651.712 938.261 651.246C938.741 650.779 939.468 650.546 940.441 650.546H941.461C942.461 650.546 943.361 650.572 944.161 650.626C944.961 650.679 945.621 650.732 946.141 650.786V649.466C946.141 649.346 946.128 649.226 946.101 649.106C946.074 648.972 945.994 648.866 945.861 648.786C945.728 648.706 945.501 648.666 945.181 648.666H944.181C942.728 648.666 941.514 648.692 940.541 648.746C939.568 648.786 938.908 648.826 938.561 648.866L938.341 647.346C938.341 647.159 938.848 647.046 939.861 647.006C940.874 646.966 942.568 646.946 944.941 646.946H945.941C946.608 646.946 947.121 647.039 947.481 647.226C947.841 647.412 948.094 647.646 948.241 647.926C948.401 648.206 948.494 648.492 948.521 648.786C948.561 649.066 948.581 649.306 948.581 649.506V655.906H946.941L946.161 655.506C945.601 655.599 944.928 655.692 944.141 655.786C943.354 655.866 942.454 655.906 941.441 655.906H940.441ZM940.961 654.186H945.541C945.834 654.186 946.008 654.159 946.061 654.106C946.114 654.052 946.141 653.886 946.141 653.606V652.066H940.961C940.601 652.066 940.348 652.152 940.201 652.326C940.068 652.499 940.001 652.772 940.001 653.146C940.001 653.519 940.081 653.786 940.241 653.946C940.401 654.106 940.641 654.186 940.961 654.186ZM951.488 655.906V646.946H953.128L953.928 647.346C954.488 647.239 955.162 647.146 955.948 647.066C956.735 646.986 957.635 646.946 958.648 646.946H959.648C960.315 646.946 960.828 647.039 961.188 647.226C961.548 647.412 961.802 647.646 961.948 647.926C962.108 648.206 962.202 648.492 962.228 648.786C962.268 649.066 962.288 649.306 962.288 649.506V655.906H959.848V649.466C959.848 648.932 959.528 648.666 958.888 648.666H954.528C954.275 648.666 954.108 648.692 954.028 648.746C953.962 648.786 953.928 648.906 953.928 649.106V655.906H951.488ZM967.634 655.906C966.967 655.906 966.454 655.819 966.094 655.646C965.734 655.472 965.474 655.252 965.314 654.986C965.167 654.719 965.074 654.439 965.034 654.146C965.007 653.852 964.994 653.586 964.994 653.346V649.506C964.994 649.306 965.007 649.066 965.034 648.786C965.074 648.492 965.167 648.206 965.314 647.926C965.474 647.646 965.734 647.412 966.094 647.226C966.467 647.039 966.98 646.946 967.634 646.946H970.414C972.08 646.946 973.26 646.992 973.954 647.086C974.66 647.166 975.014 647.252 975.014 647.346L974.614 648.866C974.24 648.839 973.767 648.812 973.194 648.786C972.62 648.746 972 648.719 971.334 648.706C970.68 648.679 970.04 648.666 969.414 648.666H968.394C967.754 648.666 967.434 648.932 967.434 649.466V653.386C967.42 653.919 967.74 654.186 968.394 654.186H969.414C970.134 654.186 970.834 654.179 971.514 654.166C972.207 654.139 972.84 654.112 973.414 654.086C973.987 654.046 974.447 654.012 974.794 653.986L975.594 655.286C975.594 655.699 974.28 655.906 971.654 655.906H967.634ZM980.031 655.906C979.364 655.906 978.851 655.819 978.491 655.646C978.131 655.472 977.871 655.252 977.711 654.986C977.564 654.719 977.471 654.439 977.431 654.146C977.404 653.852 977.391 653.586 977.391 653.346V649.506C977.391 649.306 977.404 649.066 977.431 648.786C977.471 648.492 977.564 648.206 977.711 647.926C977.871 647.646 978.131 647.412 978.491 647.226C978.864 647.039 979.377 646.946 980.031 646.946H984.331C985.211 646.946 985.897 647.032 986.391 647.206C986.897 647.366 987.251 647.632 987.451 648.006C987.664 648.379 987.771 648.879 987.771 649.506V652.466H984.271C983.071 652.466 982.091 652.439 981.331 652.386C980.584 652.332 980.084 652.299 979.831 652.286V653.386C979.817 653.919 980.137 654.186 980.791 654.186H981.811C982.531 654.186 983.231 654.179 983.911 654.166C984.604 654.139 985.237 654.112 985.811 654.086C986.384 654.046 986.844 654.012 987.191 653.986L987.991 655.286C987.991 655.699 986.677 655.906 984.051 655.906H980.031ZM979.831 650.746H985.331V649.466C985.331 649.199 985.297 649.012 985.231 648.906C985.177 648.799 985.004 648.732 984.711 648.706C984.417 648.679 983.917 648.666 983.211 648.666H980.791C980.151 648.666 979.831 648.932 979.831 649.466V650.746Z" fill="#DEDBCC"/>
<rect x="600.21" y="312.628" width="217.339" height="217.339" transform="rotate(45 600.21 312.628)" stroke="#F2FF58" stroke-opacity="0.8" stroke-width="3"/>
<path d="M506.012 473L511.872 461.24H515.812L521.652 473H518.572L517.392 470.46H510.232L508.932 473H506.012ZM510.952 468.5H516.652L513.912 463.04H513.712L510.952 468.5ZM523.456 473V464.04H525.096L525.896 464.44C526.456 464.333 527.13 464.24 527.916 464.16C528.703 464.08 529.603 464.04 530.616 464.04H531.616C532.283 464.04 532.796 464.133 533.156 464.32C533.516 464.507 533.77 464.74 533.916 465.02C534.076 465.3 534.17 465.587 534.196 465.88C534.236 466.16 534.256 466.4 534.256 466.6V473H531.816V466.56C531.816 466.027 531.496 465.76 530.856 465.76H526.496C526.243 465.76 526.076 465.787 525.996 465.84C525.93 465.88 525.896 466 525.896 466.2V473H523.456ZM539.742 473C538.728 473 537.995 472.767 537.542 472.3C537.088 471.82 536.862 471.167 536.862 470.34C536.862 469.473 537.095 468.807 537.562 468.34C538.042 467.873 538.768 467.64 539.742 467.64H540.762C541.762 467.64 542.662 467.667 543.462 467.72C544.262 467.773 544.922 467.827 545.442 467.88V466.56C545.442 466.44 545.428 466.32 545.402 466.2C545.375 466.067 545.295 465.96 545.162 465.88C545.028 465.8 544.802 465.76 544.482 465.76H543.482C542.028 465.76 540.815 465.787 539.842 465.84C538.868 465.88 538.208 465.92 537.862 465.96L537.642 464.44C537.642 464.253 538.148 464.14 539.162 464.1C540.175 464.06 541.868 464.04 544.242 464.04H545.242C545.908 464.04 546.422 464.133 546.782 464.32C547.142 464.507 547.395 464.74 547.542 465.02C547.702 465.3 547.795 465.587 547.822 465.88C547.862 466.16 547.882 466.4 547.882 466.6V473H546.242L545.462 472.6C544.902 472.693 544.228 472.787 543.442 472.88C542.655 472.96 541.755 473 540.742 473H539.742ZM540.262 471.28H544.842C545.135 471.28 545.308 471.253 545.362 471.2C545.415 471.147 545.442 470.98 545.442 470.7V469.16H540.262C539.902 469.16 539.648 469.247 539.502 469.42C539.368 469.593 539.302 469.867 539.302 470.24C539.302 470.613 539.382 470.88 539.542 471.04C539.702 471.2 539.942 471.28 540.262 471.28ZM542.182 462.64C542.182 462.467 542.242 462.227 542.362 461.92C542.495 461.6 542.642 461.287 542.802 460.98C542.962 460.66 543.088 460.42 543.182 460.26C543.302 460.073 543.448 459.933 543.622 459.84C543.808 459.733 544.062 459.68 544.382 459.68H544.602C545.122 459.68 545.382 459.873 545.382 460.26C545.382 460.46 545.255 460.713 545.002 461.02C544.762 461.327 544.468 461.627 544.122 461.92C543.788 462.2 543.475 462.433 543.182 462.62C542.968 462.753 542.748 462.853 542.522 462.92C542.295 462.987 542.182 462.893 542.182 462.64ZM550.989 473V461.92L550.789 460.32H553.429V473H550.989ZM557.848 462.78C557.355 462.78 556.995 462.68 556.768 462.48C556.541 462.28 556.428 461.947 556.428 461.48C556.428 461 556.535 460.667 556.748 460.48C556.975 460.28 557.341 460.18 557.848 460.18C558.355 460.18 558.721 460.28 558.948 460.48C559.175 460.667 559.288 461 559.288 461.48C559.288 461.933 559.175 462.267 558.948 462.48C558.721 462.68 558.355 462.78 557.848 462.78ZM556.628 473V464.04H559.068V473H556.628ZM564.542 473C563.649 473 563.015 472.953 562.642 472.86C562.269 472.767 562.082 472.673 562.082 472.58L562.682 471.08C563.069 471.12 563.775 471.167 564.802 471.22C565.842 471.26 567.122 471.28 568.642 471.28H569.642C569.975 471.28 570.182 471.193 570.262 471.02C570.355 470.833 570.402 470.587 570.402 470.28C570.402 469.973 570.349 469.727 570.242 469.54C570.149 469.353 569.949 469.26 569.642 469.26H564.722C563.789 469.26 563.115 469.087 562.702 468.74C562.289 468.38 562.082 467.847 562.082 467.14V466.34C562.082 466.153 562.102 465.933 562.142 465.68C562.182 465.427 562.282 465.173 562.442 464.92C562.602 464.667 562.862 464.46 563.222 464.3C563.582 464.127 564.082 464.04 564.722 464.04H570.242C571.042 464.04 571.609 464.087 571.942 464.18C572.275 464.273 572.442 464.367 572.442 464.46L572.242 465.96C571.855 465.92 571.142 465.88 570.102 465.84C569.062 465.787 567.789 465.76 566.282 465.76H565.282C564.949 465.76 564.735 465.853 564.642 466.04C564.562 466.213 564.522 466.42 564.522 466.66C564.522 466.913 564.562 467.127 564.642 467.3C564.735 467.46 564.949 467.54 565.282 467.54H570.202C571.109 467.54 571.775 467.727 572.202 468.1C572.629 468.473 572.842 468.947 572.842 469.52V470.7C572.842 470.94 572.822 471.193 572.782 471.46C572.755 471.727 572.662 471.98 572.502 472.22C572.342 472.447 572.082 472.633 571.722 472.78C571.362 472.927 570.855 473 570.202 473H564.542ZM578.076 473C577.409 473 576.896 472.913 576.536 472.74C576.176 472.567 575.916 472.347 575.756 472.08C575.609 471.813 575.516 471.533 575.476 471.24C575.449 470.947 575.436 470.68 575.436 470.44V466.6C575.436 466.4 575.449 466.16 575.476 465.88C575.516 465.587 575.609 465.3 575.756 465.02C575.916 464.74 576.176 464.507 576.536 464.32C576.909 464.133 577.423 464.04 578.076 464.04H582.376C583.256 464.04 583.943 464.127 584.436 464.3C584.943 464.46 585.296 464.727 585.496 465.1C585.709 465.473 585.816 465.973 585.816 466.6V469.56H582.316C581.116 469.56 580.136 469.533 579.376 469.48C578.629 469.427 578.129 469.393 577.876 469.38V470.48C577.863 471.013 578.183 471.28 578.836 471.28H579.856C580.576 471.28 581.276 471.273 581.956 471.26C582.649 471.233 583.283 471.207 583.856 471.18C584.429 471.14 584.889 471.107 585.236 471.08L586.036 472.38C586.036 472.793 584.723 473 582.096 473H578.076ZM577.876 467.84H583.376V466.56C583.376 466.293 583.343 466.107 583.276 466C583.223 465.893 583.049 465.827 582.756 465.8C582.463 465.773 581.963 465.76 581.256 465.76H578.836C578.196 465.76 577.876 466.027 577.876 466.56V467.84ZM596.073 473C595.406 473 594.893 472.913 594.533 472.74C594.173 472.567 593.913 472.347 593.753 472.08C593.606 471.813 593.513 471.533 593.473 471.24C593.446 470.947 593.433 470.68 593.433 470.44V466.6C593.433 466.4 593.446 466.16 593.473 465.88C593.513 465.587 593.606 465.3 593.753 465.02C593.913 464.74 594.173 464.507 594.533 464.32C594.906 464.133 595.419 464.04 596.073 464.04H597.093C598.319 464.04 599.306 464.067 600.053 464.12C600.813 464.16 601.393 464.207 601.793 464.26V460.32H604.233V473H602.593L601.813 472.6C601.253 472.693 600.579 472.787 599.793 472.88C599.006 472.96 598.099 473 597.073 473H596.073ZM596.833 471.28H601.173C601.453 471.28 601.626 471.247 601.693 471.18C601.759 471.113 601.793 470.947 601.793 470.68V465.9C601.339 465.873 600.766 465.847 600.073 465.82C599.379 465.78 598.639 465.76 597.853 465.76H596.833C596.193 465.76 595.873 466.027 595.873 466.56V470.48C595.873 471.013 596.193 471.28 596.833 471.28ZM609.876 473C609.209 473 608.696 472.913 608.336 472.74C607.976 472.567 607.716 472.347 607.556 472.08C607.409 471.813 607.316 471.533 607.276 471.24C607.249 470.947 607.236 470.68 607.236 470.44V466.6C607.236 466.4 607.249 466.16 607.276 465.88C607.316 465.587 607.409 465.3 607.556 465.02C607.716 464.74 607.976 464.507 608.336 464.32C608.709 464.133 609.223 464.04 609.876 464.04H614.176C615.056 464.04 615.743 464.127 616.236 464.3C616.743 464.46 617.096 464.727 617.296 465.1C617.509 465.473 617.616 465.973 617.616 466.6V469.56H614.116C612.916 469.56 611.936 469.533 611.176 469.48C610.429 469.427 609.929 469.393 609.676 469.38V470.48C609.663 471.013 609.983 471.28 610.636 471.28H611.656C612.376 471.28 613.076 471.273 613.756 471.26C614.449 471.233 615.083 471.207 615.656 471.18C616.229 471.14 616.689 471.107 617.036 471.08L617.836 472.38C617.836 472.793 616.523 473 613.896 473H609.876ZM609.676 467.84H615.176V466.56C615.176 466.293 615.143 466.107 615.076 466C615.023 465.893 614.849 465.827 614.556 465.8C614.263 465.773 613.763 465.76 613.056 465.76H610.636C609.996 465.76 609.676 466.027 609.676 466.56V467.84ZM626.033 473V462.84L625.833 461.24H635.113C636.193 461.24 637.019 461.373 637.593 461.64C638.179 461.907 638.586 462.307 638.813 462.84C639.039 463.36 639.153 464.013 639.153 464.8V469.42C639.153 470.22 639.039 470.887 638.813 471.42C638.599 471.94 638.199 472.333 637.613 472.6C637.039 472.867 636.206 473 635.113 473H626.033ZM628.673 471.08H634.953C635.979 471.08 636.499 470.607 636.513 469.66V464.56C636.513 464.173 636.399 463.847 636.173 463.58C635.946 463.3 635.539 463.16 634.953 463.16H628.673V471.08ZM644.726 473C643.713 473 642.979 472.767 642.526 472.3C642.073 471.82 641.846 471.167 641.846 470.34C641.846 469.473 642.079 468.807 642.546 468.34C643.026 467.873 643.753 467.64 644.726 467.64H645.746C646.746 467.64 647.646 467.667 648.446 467.72C649.246 467.773 649.906 467.827 650.426 467.88V466.56C650.426 466.44 650.413 466.32 650.386 466.2C650.359 466.067 650.279 465.96 650.146 465.88C650.013 465.8 649.786 465.76 649.466 465.76H648.466C647.013 465.76 645.799 465.787 644.826 465.84C643.853 465.88 643.193 465.92 642.846 465.96L642.626 464.44C642.626 464.253 643.133 464.14 644.146 464.1C645.159 464.06 646.853 464.04 649.226 464.04H650.226C650.893 464.04 651.406 464.133 651.766 464.32C652.126 464.507 652.379 464.74 652.526 465.02C652.686 465.3 652.779 465.587 652.806 465.88C652.846 466.16 652.866 466.4 652.866 466.6V473H651.226L650.446 472.6C649.886 472.693 649.213 472.787 648.426 472.88C647.639 472.96 646.739 473 645.726 473H644.726ZM645.246 471.28H649.826C650.119 471.28 650.293 471.253 650.346 471.2C650.399 471.147 650.426 470.98 650.426 470.7V469.16H645.246C644.886 469.16 644.633 469.247 644.486 469.42C644.353 469.593 644.286 469.867 644.286 470.24C644.286 470.613 644.366 470.88 644.526 471.04C644.686 471.2 644.926 471.28 645.246 471.28ZM658.213 473C657.547 473 657.033 472.913 656.673 472.74C656.313 472.567 656.053 472.347 655.893 472.08C655.747 471.813 655.653 471.533 655.613 471.24C655.587 470.947 655.573 470.68 655.573 470.44V466.6C655.573 466.4 655.587 466.16 655.613 465.88C655.653 465.587 655.747 465.3 655.893 465.02C656.053 464.74 656.313 464.507 656.673 464.32C657.047 464.133 657.56 464.04 658.213 464.04H659.233C660.46 464.04 661.447 464.067 662.193 464.12C662.953 464.16 663.533 464.207 663.933 464.26V460.32H666.373V473H664.733L663.953 472.6C663.393 472.693 662.72 472.787 661.933 472.88C661.147 472.96 660.24 473 659.213 473H658.213ZM658.973 471.28H663.313C663.593 471.28 663.767 471.247 663.833 471.18C663.9 471.113 663.933 470.947 663.933 470.68V465.9C663.48 465.873 662.907 465.847 662.213 465.82C661.52 465.78 660.78 465.76 659.993 465.76H658.973C658.333 465.76 658.013 466.027 658.013 466.56V470.48C658.013 471.013 658.333 471.28 658.973 471.28ZM672.017 473C671.123 473 670.457 472.82 670.017 472.46C669.59 472.1 669.377 471.513 669.377 470.7V466.6C669.377 466.4 669.39 466.16 669.417 465.88C669.457 465.587 669.55 465.3 669.697 465.02C669.857 464.74 670.117 464.507 670.477 464.32C670.85 464.133 671.363 464.04 672.017 464.04H677.537C678.203 464.04 678.717 464.133 679.077 464.32C679.437 464.507 679.69 464.74 679.837 465.02C679.997 465.3 680.09 465.587 680.117 465.88C680.157 466.16 680.177 466.4 680.177 466.6V470.44C680.177 470.68 680.157 470.947 680.117 471.24C680.09 471.533 679.997 471.813 679.837 472.08C679.677 472.347 679.417 472.567 679.057 472.74C678.697 472.913 678.19 473 677.537 473H672.017ZM672.777 471.28H676.777C677.43 471.28 677.757 471.013 677.757 470.48V466.56C677.757 466.027 677.43 465.76 676.777 465.76H672.777C672.137 465.76 671.817 466.027 671.817 466.56V470.48C671.817 471.013 672.137 471.28 672.777 471.28ZM685.23 473C684.336 473 683.703 472.953 683.33 472.86C682.956 472.767 682.77 472.673 682.77 472.58L683.37 471.08C683.756 471.12 684.463 471.167 685.49 471.22C686.53 471.26 687.81 471.28 689.33 471.28H690.33C690.663 471.28 690.87 471.193 690.95 471.02C691.043 470.833 691.09 470.587 691.09 470.28C691.09 469.973 691.036 469.727 690.93 469.54C690.836 469.353 690.636 469.26 690.33 469.26H685.41C684.476 469.26 683.803 469.087 683.39 468.74C682.976 468.38 682.77 467.847 682.77 467.14V466.34C682.77 466.153 682.79 465.933 682.83 465.68C682.87 465.427 682.97 465.173 683.13 464.92C683.29 464.667 683.55 464.46 683.91 464.3C684.27 464.127 684.77 464.04 685.41 464.04H690.93C691.73 464.04 692.296 464.087 692.63 464.18C692.963 464.273 693.13 464.367 693.13 464.46L692.93 465.96C692.543 465.92 691.83 465.88 690.79 465.84C689.75 465.787 688.476 465.76 686.97 465.76H685.97C685.636 465.76 685.423 465.853 685.33 466.04C685.25 466.213 685.21 466.42 685.21 466.66C685.21 466.913 685.25 467.127 685.33 467.3C685.423 467.46 685.636 467.54 685.97 467.54H690.89C691.796 467.54 692.463 467.727 692.89 468.1C693.316 468.473 693.53 468.947 693.53 469.52V470.7C693.53 470.94 693.51 471.193 693.47 471.46C693.443 471.727 693.35 471.98 693.19 472.22C693.03 472.447 692.77 472.633 692.41 472.78C692.05 472.927 691.543 473 690.89 473H685.23Z" fill="#DEDBCC"/>
<rect y="2.12132" width="287.016" height="287.016" transform="matrix(-0.707107 0.707107 0.707107 0.707107 1512.05 445.477)" stroke="#F2FF58" stroke-opacity="0.8" stroke-width="3"/>
<path d="M1399.26 653V641.24H1411.7V643.16H1401.9V645.92H1409.38V647.9H1401.9V651.08H1411.78L1412.58 652.78C1412.58 652.833 1412.4 652.887 1412.04 652.94C1411.68 652.98 1411.06 653 1410.18 653H1399.26ZM1417.9 653L1413.78 644.04H1416.58L1418.88 649.56L1419.4 651H1419.6L1420.12 649.56L1422.46 644.04H1425.18L1424.86 645.26L1421.1 653H1417.9ZM1429.61 653C1428.72 653 1428.05 652.82 1427.61 652.46C1427.19 652.1 1426.97 651.513 1426.97 650.7V646.6C1426.97 646.4 1426.99 646.16 1427.01 645.88C1427.05 645.587 1427.15 645.3 1427.29 645.02C1427.45 644.74 1427.71 644.507 1428.07 644.32C1428.45 644.133 1428.96 644.04 1429.61 644.04H1435.13C1435.8 644.04 1436.31 644.133 1436.67 644.32C1437.03 644.507 1437.29 644.74 1437.43 645.02C1437.59 645.3 1437.69 645.587 1437.71 645.88C1437.75 646.16 1437.77 646.4 1437.77 646.6V650.44C1437.77 650.68 1437.75 650.947 1437.71 651.24C1437.69 651.533 1437.59 651.813 1437.43 652.08C1437.27 652.347 1437.01 652.567 1436.65 652.74C1436.29 652.913 1435.79 653 1435.13 653H1429.61ZM1430.37 651.28H1434.37C1435.03 651.28 1435.35 651.013 1435.35 650.48V646.56C1435.35 646.027 1435.03 645.76 1434.37 645.76H1430.37C1429.73 645.76 1429.41 646.027 1429.41 646.56V650.48C1429.41 651.013 1429.73 651.28 1430.37 651.28ZM1440.77 653V641.92L1440.57 640.32H1443.21V653H1440.77ZM1448.85 653C1448.19 653 1447.68 652.913 1447.31 652.74C1446.95 652.567 1446.69 652.347 1446.53 652.08C1446.38 651.813 1446.29 651.533 1446.25 651.24C1446.22 650.947 1446.21 650.68 1446.21 650.44V644.04H1448.65V650.48C1448.63 650.773 1448.73 650.98 1448.93 651.1C1449.14 651.22 1449.37 651.28 1449.61 651.28H1453.57C1453.86 651.28 1454.03 651.253 1454.09 651.2C1454.14 651.147 1454.17 650.973 1454.17 650.68V644.04H1456.61V653H1454.97L1454.21 652.6C1453.67 652.707 1453.04 652.8 1452.31 652.88C1451.59 652.96 1450.77 653 1449.87 653H1448.85ZM1462.04 653C1461.37 653 1460.86 652.913 1460.5 652.74C1460.14 652.567 1459.88 652.347 1459.72 652.08C1459.57 651.813 1459.48 651.533 1459.44 651.24C1459.41 650.947 1459.4 650.68 1459.4 650.44V646.6C1459.4 646.4 1459.41 646.16 1459.44 645.88C1459.48 645.587 1459.57 645.3 1459.72 645.02C1459.88 644.74 1460.14 644.507 1460.5 644.32C1460.87 644.133 1461.39 644.04 1462.04 644.04H1464.82C1466.49 644.04 1467.67 644.087 1468.36 644.18C1469.07 644.26 1469.42 644.347 1469.42 644.44L1469.02 645.96C1468.65 645.933 1468.17 645.907 1467.6 645.88C1467.03 645.84 1466.41 645.813 1465.74 645.8C1465.09 645.773 1464.45 645.76 1463.82 645.76H1462.8C1462.16 645.76 1461.84 646.027 1461.84 646.56V650.48C1461.83 651.013 1462.15 651.28 1462.8 651.28H1463.82C1464.54 651.28 1465.24 651.273 1465.92 651.26C1466.61 651.233 1467.25 651.207 1467.82 651.18C1468.39 651.14 1468.85 651.107 1469.2 651.08L1470 652.38C1470 652.793 1468.69 653 1466.06 653H1462.04ZM1464.3 657.4C1463.73 657.4 1463.25 657.287 1462.88 657.06C1462.51 656.833 1462.24 656.593 1462.08 656.34C1462.01 656.233 1461.98 656.12 1461.98 656C1461.98 655.893 1462.02 655.807 1462.1 655.74C1462.18 655.673 1462.29 655.66 1462.42 655.7C1462.67 655.767 1462.93 655.833 1463.2 655.9C1463.48 655.967 1463.79 656 1464.14 656C1464.79 656 1465.12 655.793 1465.12 655.38C1465.12 655.087 1464.92 654.893 1464.52 654.8C1464.13 654.72 1463.69 654.687 1463.18 654.7C1463.26 654.46 1463.38 654.173 1463.54 653.84C1463.7 653.52 1463.86 653.24 1464.02 653C1464.18 652.76 1464.36 652.64 1464.56 652.64C1464.76 652.64 1464.84 652.76 1464.8 653C1464.76 653.2 1464.72 653.38 1464.68 653.54C1464.65 653.7 1464.63 653.853 1464.6 654C1465.19 654.053 1465.63 654.22 1465.94 654.5C1466.26 654.793 1466.42 655.193 1466.42 655.7C1466.42 656.18 1466.23 656.58 1465.86 656.9C1465.49 657.233 1464.97 657.4 1464.3 657.4ZM1474.58 653C1473.56 653 1472.83 652.767 1472.38 652.3C1471.92 651.82 1471.7 651.167 1471.7 650.34C1471.7 649.473 1471.93 648.807 1472.4 648.34C1472.88 647.873 1473.6 647.64 1474.58 647.64H1475.6C1476.6 647.64 1477.5 647.667 1478.3 647.72C1479.1 647.773 1479.76 647.827 1480.28 647.88V646.56C1480.28 646.44 1480.26 646.32 1480.24 646.2C1480.21 646.067 1480.13 645.96 1480 645.88C1479.86 645.8 1479.64 645.76 1479.32 645.76H1478.32C1476.86 645.76 1475.65 645.787 1474.68 645.84C1473.7 645.88 1473.04 645.92 1472.7 645.96L1472.48 644.44C1472.48 644.253 1472.98 644.14 1474 644.1C1475.01 644.06 1476.7 644.04 1479.08 644.04H1480.08C1480.74 644.04 1481.26 644.133 1481.62 644.32C1481.98 644.507 1482.23 644.74 1482.38 645.02C1482.54 645.3 1482.63 645.587 1482.66 645.88C1482.7 646.16 1482.72 646.4 1482.72 646.6V653H1481.08L1480.3 652.6C1479.74 652.693 1479.06 652.787 1478.28 652.88C1477.49 652.96 1476.59 653 1475.58 653H1474.58ZM1475.1 651.28H1479.68C1479.97 651.28 1480.14 651.253 1480.2 651.2C1480.25 651.147 1480.28 650.98 1480.28 650.7V649.16H1475.1C1474.74 649.16 1474.48 649.247 1474.34 649.42C1474.2 649.593 1474.14 649.867 1474.14 650.24C1474.14 650.613 1474.22 650.88 1474.38 651.04C1474.54 651.2 1474.78 651.28 1475.1 651.28ZM1479.12 643C1478.74 643 1478.42 642.933 1478.14 642.8C1477.87 642.653 1477.63 642.487 1477.42 642.3C1477.2 642.113 1476.99 641.953 1476.78 641.82C1476.58 641.673 1476.35 641.6 1476.1 641.6C1475.76 641.6 1475.53 641.72 1475.4 641.96C1475.28 642.187 1475.18 642.4 1475.12 642.6C1475.06 642.76 1474.97 642.873 1474.84 642.94C1474.7 642.993 1474.58 642.98 1474.46 642.9C1474.35 642.82 1474.3 642.66 1474.3 642.42C1474.3 641.833 1474.46 641.32 1474.8 640.88C1475.14 640.427 1475.64 640.2 1476.3 640.2C1476.67 640.2 1476.98 640.273 1477.24 640.42C1477.5 640.553 1477.74 640.713 1477.94 640.9C1478.15 641.087 1478.36 641.253 1478.58 641.4C1478.8 641.533 1479.06 641.6 1479.34 641.6C1479.64 641.6 1479.87 641.487 1480.02 641.26C1480.16 641.02 1480.26 640.8 1480.32 640.6C1480.37 640.427 1480.46 640.313 1480.58 640.26C1480.71 640.193 1480.84 640.2 1480.96 640.28C1481.08 640.36 1481.14 640.527 1481.14 640.78C1481.14 641.14 1481.06 641.493 1480.92 641.84C1480.78 642.173 1480.56 642.453 1480.26 642.68C1479.96 642.893 1479.58 643 1479.12 643ZM1488.06 653C1487.17 653 1486.5 652.82 1486.06 652.46C1485.64 652.1 1485.42 651.513 1485.42 650.7V646.6C1485.42 646.4 1485.44 646.16 1485.46 645.88C1485.5 645.587 1485.6 645.3 1485.74 645.02C1485.9 644.74 1486.16 644.507 1486.52 644.32C1486.9 644.133 1487.41 644.04 1488.06 644.04H1493.58C1494.25 644.04 1494.76 644.133 1495.12 644.32C1495.48 644.507 1495.74 644.74 1495.88 645.02C1496.04 645.3 1496.14 645.587 1496.16 645.88C1496.2 646.16 1496.22 646.4 1496.22 646.6V650.44C1496.22 650.68 1496.2 650.947 1496.16 651.24C1496.14 651.533 1496.04 651.813 1495.88 652.08C1495.72 652.347 1495.46 652.567 1495.1 652.74C1494.74 652.913 1494.24 653 1493.58 653H1488.06ZM1488.82 651.28H1492.82C1493.48 651.28 1493.8 651.013 1493.8 650.48V646.56C1493.8 646.027 1493.48 645.76 1492.82 645.76H1488.82C1488.18 645.76 1487.86 646.027 1487.86 646.56V650.48C1487.86 651.013 1488.18 651.28 1488.82 651.28ZM1507.87 653C1506.92 653 1506.18 652.867 1505.65 652.6C1505.12 652.333 1504.74 651.933 1504.53 651.4C1504.32 650.867 1504.21 650.207 1504.21 649.42V644.96C1504.21 643.68 1504.5 642.74 1505.07 642.14C1505.64 641.527 1506.58 641.22 1507.87 641.22H1513.89C1514.81 641.22 1515.51 641.273 1515.99 641.38C1516.48 641.473 1516.73 641.573 1516.73 641.68L1516.33 643.34C1516.1 643.3 1515.43 643.26 1514.31 643.22C1513.2 643.167 1511.59 643.14 1509.47 643.14H1508.45C1507.38 643.14 1506.85 643.613 1506.85 644.56V649.66C1506.85 650.113 1506.96 650.467 1507.19 650.72C1507.43 650.96 1507.85 651.08 1508.45 651.08H1509.27C1511.48 651.08 1513.2 651.06 1514.41 651.02C1515.64 650.967 1516.4 650.913 1516.69 650.86L1517.51 652.18C1517.51 652.247 1517.4 652.347 1517.17 652.48C1516.96 652.613 1516.56 652.733 1515.97 652.84C1515.38 652.947 1514.54 653 1513.43 653H1507.87ZM1522.15 653C1521.25 653 1520.59 652.82 1520.15 652.46C1519.72 652.1 1519.51 651.513 1519.51 650.7V646.6C1519.51 646.4 1519.52 646.16 1519.55 645.88C1519.59 645.587 1519.68 645.3 1519.83 645.02C1519.99 644.74 1520.25 644.507 1520.61 644.32C1520.98 644.133 1521.49 644.04 1522.15 644.04H1527.67C1528.33 644.04 1528.85 644.133 1529.21 644.32C1529.57 644.507 1529.82 644.74 1529.97 645.02C1530.13 645.3 1530.22 645.587 1530.25 645.88C1530.29 646.16 1530.31 646.4 1530.31 646.6V650.44C1530.31 650.68 1530.29 650.947 1530.25 651.24C1530.22 651.533 1530.13 651.813 1529.97 652.08C1529.81 652.347 1529.55 652.567 1529.19 652.74C1528.83 652.913 1528.32 653 1527.67 653H1522.15ZM1522.91 651.28H1526.91C1527.56 651.28 1527.89 651.013 1527.89 650.48V646.56C1527.89 646.027 1527.56 645.76 1526.91 645.76H1522.91C1522.27 645.76 1521.95 646.027 1521.95 646.56V650.48C1521.95 651.013 1522.27 651.28 1522.91 651.28ZM1533.1 653V644.04H1534.74L1535.54 644.44C1536.1 644.333 1536.77 644.24 1537.56 644.16C1538.35 644.08 1539.25 644.04 1540.26 644.04H1541.26C1541.93 644.04 1542.44 644.133 1542.8 644.32C1543.16 644.507 1543.41 644.74 1543.56 645.02C1543.72 645.3 1543.81 645.587 1543.84 645.88C1543.88 646.16 1543.9 646.4 1543.9 646.6V653H1541.46V646.56C1541.46 646.027 1541.14 645.76 1540.5 645.76H1536.14C1535.89 645.76 1535.72 645.787 1535.64 645.84C1535.57 645.88 1535.54 646 1535.54 646.2V653H1533.1ZM1549.07 653C1548.17 653 1547.54 652.953 1547.17 652.86C1546.79 652.767 1546.61 652.673 1546.61 652.58L1547.21 651.08C1547.59 651.12 1548.3 651.167 1549.33 651.22C1550.37 651.26 1551.65 651.28 1553.17 651.28H1554.17C1554.5 651.28 1554.71 651.193 1554.79 651.02C1554.88 650.833 1554.93 650.587 1554.93 650.28C1554.93 649.973 1554.87 649.727 1554.77 649.54C1554.67 649.353 1554.47 649.26 1554.17 649.26H1549.25C1548.31 649.26 1547.64 649.087 1547.23 648.74C1546.81 648.38 1546.61 647.847 1546.61 647.14V646.34C1546.61 646.153 1546.63 645.933 1546.67 645.68C1546.71 645.427 1546.81 645.173 1546.97 644.92C1547.13 644.667 1547.39 644.46 1547.75 644.3C1548.11 644.127 1548.61 644.04 1549.25 644.04H1554.77C1555.57 644.04 1556.13 644.087 1556.47 644.18C1556.8 644.273 1556.97 644.367 1556.97 644.46L1556.77 645.96C1556.38 645.92 1555.67 645.88 1554.63 645.84C1553.59 645.787 1552.31 645.76 1550.81 645.76H1549.81C1549.47 645.76 1549.26 645.853 1549.17 646.04C1549.09 646.213 1549.05 646.42 1549.05 646.66C1549.05 646.913 1549.09 647.127 1549.17 647.3C1549.26 647.46 1549.47 647.54 1549.81 647.54H1554.73C1555.63 647.54 1556.3 647.727 1556.73 648.1C1557.15 648.473 1557.37 648.947 1557.37 649.52V650.7C1557.37 650.94 1557.35 651.193 1557.31 651.46C1557.28 651.727 1557.19 651.98 1557.03 652.22C1556.87 652.447 1556.61 652.633 1556.25 652.78C1555.89 652.927 1555.38 653 1554.73 653H1549.07ZM1563.64 653C1562.63 653 1561.93 652.787 1561.56 652.36C1561.19 651.933 1561 651.293 1561 650.44V645.76H1559.36V644.04H1560.2C1560.45 644.04 1560.63 644 1560.74 643.92C1560.86 643.84 1560.95 643.68 1561 643.44L1561.4 641.3H1563.44V644.04H1567.6V645.76H1563.44V650.46C1563.44 650.793 1563.52 651.013 1563.68 651.12C1563.84 651.227 1564.08 651.28 1564.4 651.28H1567.22L1567.42 652.8C1567.14 652.84 1566.71 652.887 1566.14 652.94C1565.57 652.98 1564.94 653 1564.26 653H1563.64ZM1572.38 653C1571.37 653 1570.64 652.767 1570.18 652.3C1569.73 651.82 1569.5 651.167 1569.5 650.34C1569.5 649.473 1569.74 648.807 1570.2 648.34C1570.68 647.873 1571.41 647.64 1572.38 647.64H1573.4C1574.4 647.64 1575.3 647.667 1576.1 647.72C1576.9 647.773 1577.56 647.827 1578.08 647.88V646.56C1578.08 646.44 1578.07 646.32 1578.04 646.2C1578.02 646.067 1577.94 645.96 1577.8 645.88C1577.67 645.8 1577.44 645.76 1577.12 645.76H1576.12C1574.67 645.76 1573.46 645.787 1572.48 645.84C1571.51 645.88 1570.85 645.92 1570.5 645.96L1570.28 644.44C1570.28 644.253 1570.79 644.14 1571.8 644.1C1572.82 644.06 1574.51 644.04 1576.88 644.04H1577.88C1578.55 644.04 1579.06 644.133 1579.42 644.32C1579.78 644.507 1580.04 644.74 1580.18 645.02C1580.34 645.3 1580.44 645.587 1580.46 645.88C1580.5 646.16 1580.52 646.4 1580.52 646.6V653H1578.88L1578.1 652.6C1577.54 652.693 1576.87 652.787 1576.08 652.88C1575.3 652.96 1574.4 653 1573.38 653H1572.38ZM1572.9 651.28H1577.48C1577.78 651.28 1577.95 651.253 1578 651.2C1578.06 651.147 1578.08 650.98 1578.08 650.7V649.16H1572.9C1572.54 649.16 1572.29 649.247 1572.14 649.42C1572.01 649.593 1571.94 649.867 1571.94 650.24C1571.94 650.613 1572.02 650.88 1572.18 651.04C1572.34 651.2 1572.58 651.28 1572.9 651.28ZM1583.43 653V644.04H1585.07L1585.87 644.44C1586.43 644.333 1587.1 644.24 1587.89 644.16C1588.68 644.08 1589.58 644.04 1590.59 644.04H1591.59C1592.26 644.04 1592.77 644.133 1593.13 644.32C1593.49 644.507 1593.74 644.74 1593.89 645.02C1594.05 645.3 1594.14 645.587 1594.17 645.88C1594.21 646.16 1594.23 646.4 1594.23 646.6V653H1591.79V646.56C1591.79 646.027 1591.47 645.76 1590.83 645.76H1586.47C1586.22 645.76 1586.05 645.787 1585.97 645.84C1585.9 645.88 1585.87 646 1585.87 646.2V653H1583.43ZM1599.4 653C1598.5 653 1597.87 652.953 1597.5 652.86C1597.12 652.767 1596.94 652.673 1596.94 652.58L1597.54 651.08C1597.92 651.12 1598.63 651.167 1599.66 651.22C1600.7 651.26 1601.98 651.28 1603.5 651.28H1604.5C1604.83 651.28 1605.04 651.193 1605.12 651.02C1605.21 650.833 1605.26 650.587 1605.26 650.28C1605.26 649.973 1605.2 649.727 1605.1 649.54C1605 649.353 1604.8 649.26 1604.5 649.26H1599.58C1598.64 649.26 1597.97 649.087 1597.56 648.74C1597.14 648.38 1596.94 647.847 1596.94 647.14V646.34C1596.94 646.153 1596.96 645.933 1597 645.68C1597.04 645.427 1597.14 645.173 1597.3 644.92C1597.46 644.667 1597.72 644.46 1598.08 644.3C1598.44 644.127 1598.94 644.04 1599.58 644.04H1605.1C1605.9 644.04 1606.46 644.087 1606.8 644.18C1607.13 644.273 1607.3 644.367 1607.3 644.46L1607.1 645.96C1606.71 645.92 1606 645.88 1604.96 645.84C1603.92 645.787 1602.64 645.76 1601.14 645.76H1600.14C1599.8 645.76 1599.59 645.853 1599.5 646.04C1599.42 646.213 1599.38 646.42 1599.38 646.66C1599.38 646.913 1599.42 647.127 1599.5 647.3C1599.59 647.46 1599.8 647.54 1600.14 647.54H1605.06C1605.96 647.54 1606.63 647.727 1607.06 648.1C1607.48 648.473 1607.7 648.947 1607.7 649.52V650.7C1607.7 650.94 1607.68 651.193 1607.64 651.46C1607.61 651.727 1607.52 651.98 1607.36 652.22C1607.2 652.447 1606.94 652.633 1606.58 652.78C1606.22 652.927 1605.71 653 1605.06 653H1599.4ZM1613.97 653C1612.96 653 1612.26 652.787 1611.89 652.36C1611.52 651.933 1611.33 651.293 1611.33 650.44V645.76H1609.69V644.04H1610.53C1610.78 644.04 1610.96 644 1611.07 643.92C1611.19 643.84 1611.28 643.68 1611.33 643.44L1611.73 641.3H1613.77V644.04H1617.93V645.76H1613.77V650.46C1613.77 650.793 1613.85 651.013 1614.01 651.12C1614.17 651.227 1614.41 651.28 1614.73 651.28H1617.55L1617.75 652.8C1617.47 652.84 1617.04 652.887 1616.47 652.94C1615.9 652.98 1615.27 653 1614.59 653H1613.97ZM1622.57 653C1621.91 653 1621.39 652.913 1621.03 652.74C1620.67 652.567 1620.41 652.347 1620.25 652.08C1620.11 651.813 1620.01 651.533 1619.97 651.24C1619.95 650.947 1619.93 650.68 1619.93 650.44V646.6C1619.93 646.4 1619.95 646.16 1619.97 645.88C1620.01 645.587 1620.11 645.3 1620.25 645.02C1620.41 644.74 1620.67 644.507 1621.03 644.32C1621.41 644.133 1621.92 644.04 1622.57 644.04H1626.87C1627.75 644.04 1628.44 644.127 1628.93 644.3C1629.44 644.46 1629.79 644.727 1629.99 645.1C1630.21 645.473 1630.31 645.973 1630.31 646.6V649.56H1626.81C1625.61 649.56 1624.63 649.533 1623.87 649.48C1623.13 649.427 1622.63 649.393 1622.37 649.38V650.48C1622.36 651.013 1622.68 651.28 1623.33 651.28H1624.35C1625.07 651.28 1625.77 651.273 1626.45 651.26C1627.15 651.233 1627.78 651.207 1628.35 651.18C1628.93 651.14 1629.39 651.107 1629.73 651.08L1630.53 652.38C1630.53 652.793 1629.22 653 1626.59 653H1622.57ZM1622.37 647.84H1627.87V646.56C1627.87 646.293 1627.84 646.107 1627.77 646C1627.72 645.893 1627.55 645.827 1627.25 645.8C1626.96 645.773 1626.46 645.76 1625.75 645.76H1623.33C1622.69 645.76 1622.37 646.027 1622.37 646.56V647.84Z" fill="#DEDBCC"/>
<rect y="2.12132" width="217.339" height="217.339" transform="matrix(-0.707107 0.707107 0.707107 0.707107 1809.09 311.128)" stroke="#F2FF58" stroke-opacity="0.8" stroke-width="3"/>
<path d="M1729.24 472V461.84L1729.04 460.24H1738.32C1739.4 460.24 1740.23 460.373 1740.8 460.64C1741.39 460.907 1741.79 461.307 1742.02 461.84C1742.25 462.36 1742.36 463.013 1742.36 463.8V468.42C1742.36 469.22 1742.25 469.887 1742.02 470.42C1741.81 470.94 1741.41 471.333 1740.82 471.6C1740.25 471.867 1739.41 472 1738.32 472H1729.24ZM1731.88 470.08H1738.16C1739.19 470.08 1739.71 469.607 1739.72 468.66V463.56C1739.72 463.173 1739.61 462.847 1739.38 462.58C1739.15 462.3 1738.75 462.16 1738.16 462.16H1731.88V470.08ZM1747.79 472C1747.13 472 1746.61 471.913 1746.25 471.74C1745.89 471.567 1745.63 471.347 1745.47 471.08C1745.33 470.813 1745.23 470.533 1745.19 470.24C1745.17 469.947 1745.15 469.68 1745.15 469.44V465.6C1745.15 465.4 1745.17 465.16 1745.19 464.88C1745.23 464.587 1745.33 464.3 1745.47 464.02C1745.63 463.74 1745.89 463.507 1746.25 463.32C1746.63 463.133 1747.14 463.04 1747.79 463.04H1752.09C1752.97 463.04 1753.66 463.127 1754.15 463.3C1754.66 463.46 1755.01 463.727 1755.21 464.1C1755.43 464.473 1755.53 464.973 1755.53 465.6V468.56H1752.03C1750.83 468.56 1749.85 468.533 1749.09 468.48C1748.35 468.427 1747.85 468.393 1747.59 468.38V469.48C1747.58 470.013 1747.9 470.28 1748.55 470.28H1749.57C1750.29 470.28 1750.99 470.273 1751.67 470.26C1752.37 470.233 1753 470.207 1753.57 470.18C1754.15 470.14 1754.61 470.107 1754.95 470.08L1755.75 471.38C1755.75 471.793 1754.44 472 1751.81 472H1747.79ZM1747.59 466.84H1753.09V465.56C1753.09 465.293 1753.06 465.107 1752.99 465C1752.94 464.893 1752.77 464.827 1752.47 464.8C1752.18 464.773 1751.68 464.76 1750.97 464.76H1748.55C1747.91 464.76 1747.59 465.027 1747.59 465.56V466.84ZM1760.8 472C1760.13 472 1759.62 471.913 1759.26 471.74C1758.9 471.567 1758.64 471.347 1758.48 471.08C1758.33 470.813 1758.24 470.533 1758.2 470.24C1758.17 469.947 1758.16 469.68 1758.16 469.44V465.6C1758.16 465.4 1758.17 465.16 1758.2 464.88C1758.24 464.587 1758.33 464.3 1758.48 464.02C1758.64 463.74 1758.9 463.507 1759.26 463.32C1759.63 463.133 1760.14 463.04 1760.8 463.04H1763.58C1765.24 463.04 1766.42 463.087 1767.12 463.18C1767.82 463.26 1768.18 463.347 1768.18 463.44L1767.78 464.96C1767.4 464.933 1766.93 464.907 1766.36 464.88C1765.78 464.84 1765.16 464.813 1764.5 464.8C1763.84 464.773 1763.2 464.76 1762.58 464.76H1761.56C1760.92 464.76 1760.6 465.027 1760.6 465.56V469.48C1760.58 470.013 1760.9 470.28 1761.56 470.28H1762.58C1763.3 470.28 1764 470.273 1764.68 470.26C1765.37 470.233 1766 470.207 1766.58 470.18C1767.15 470.14 1767.61 470.107 1767.96 470.08L1768.76 471.38C1768.76 471.793 1767.44 472 1764.82 472H1760.8ZM1772.17 461.78C1771.68 461.78 1771.32 461.68 1771.09 461.48C1770.87 461.28 1770.75 460.947 1770.75 460.48C1770.75 460 1770.86 459.667 1771.07 459.48C1771.3 459.28 1771.67 459.18 1772.17 459.18C1772.68 459.18 1773.05 459.28 1773.27 459.48C1773.5 459.667 1773.61 460 1773.61 460.48C1773.61 460.933 1773.5 461.267 1773.27 461.48C1773.05 461.68 1772.68 461.78 1772.17 461.78ZM1770.95 472V463.04H1773.39V472H1770.95ZM1778.87 472C1777.97 472 1777.34 471.953 1776.97 471.86C1776.59 471.767 1776.41 471.673 1776.41 471.58L1777.01 470.08C1777.39 470.12 1778.1 470.167 1779.13 470.22C1780.17 470.26 1781.45 470.28 1782.97 470.28H1783.97C1784.3 470.28 1784.51 470.193 1784.59 470.02C1784.68 469.833 1784.73 469.587 1784.73 469.28C1784.73 468.973 1784.67 468.727 1784.57 468.54C1784.47 468.353 1784.27 468.26 1783.97 468.26H1779.05C1778.11 468.26 1777.44 468.087 1777.03 467.74C1776.61 467.38 1776.41 466.847 1776.41 466.14V465.34C1776.41 465.153 1776.43 464.933 1776.47 464.68C1776.51 464.427 1776.61 464.173 1776.77 463.92C1776.93 463.667 1777.19 463.46 1777.55 463.3C1777.91 463.127 1778.41 463.04 1779.05 463.04H1784.57C1785.37 463.04 1785.93 463.087 1786.27 463.18C1786.6 463.273 1786.77 463.367 1786.77 463.46L1786.57 464.96C1786.18 464.92 1785.47 464.88 1784.43 464.84C1783.39 464.787 1782.11 464.76 1780.61 464.76H1779.61C1779.27 464.76 1779.06 464.853 1778.97 465.04C1778.89 465.213 1778.85 465.42 1778.85 465.66C1778.85 465.913 1778.89 466.127 1778.97 466.3C1779.06 466.46 1779.27 466.54 1779.61 466.54H1784.53C1785.43 466.54 1786.1 466.727 1786.53 467.1C1786.95 467.473 1787.17 467.947 1787.17 468.52V469.7C1787.17 469.94 1787.15 470.193 1787.11 470.46C1787.08 470.727 1786.99 470.98 1786.83 471.22C1786.67 471.447 1786.41 471.633 1786.05 471.78C1785.69 471.927 1785.18 472 1784.53 472H1778.87ZM1792.54 472C1791.53 472 1790.79 471.767 1790.34 471.3C1789.89 470.82 1789.66 470.167 1789.66 469.34C1789.66 468.473 1789.89 467.807 1790.36 467.34C1790.84 466.873 1791.57 466.64 1792.54 466.64H1793.56C1794.56 466.64 1795.46 466.667 1796.26 466.72C1797.06 466.773 1797.72 466.827 1798.24 466.88V465.56C1798.24 465.44 1798.23 465.32 1798.2 465.2C1798.17 465.067 1798.09 464.96 1797.96 464.88C1797.83 464.8 1797.6 464.76 1797.28 464.76H1796.28C1794.83 464.76 1793.61 464.787 1792.64 464.84C1791.67 464.88 1791.01 464.92 1790.66 464.96L1790.44 463.44C1790.44 463.253 1790.95 463.14 1791.96 463.1C1792.97 463.06 1794.67 463.04 1797.04 463.04H1798.04C1798.71 463.04 1799.22 463.133 1799.58 463.32C1799.94 463.507 1800.19 463.74 1800.34 464.02C1800.5 464.3 1800.59 464.587 1800.62 464.88C1800.66 465.16 1800.68 465.4 1800.68 465.6V472H1799.04L1798.26 471.6C1797.7 471.693 1797.03 471.787 1796.24 471.88C1795.45 471.96 1794.55 472 1793.54 472H1792.54ZM1793.06 470.28H1797.64C1797.93 470.28 1798.11 470.253 1798.16 470.2C1798.21 470.147 1798.24 469.98 1798.24 469.7V468.16H1793.06C1792.7 468.16 1792.45 468.247 1792.3 468.42C1792.17 468.593 1792.1 468.867 1792.1 469.24C1792.1 469.613 1792.18 469.88 1792.34 470.04C1792.5 470.2 1792.74 470.28 1793.06 470.28ZM1797.08 462C1796.71 462 1796.38 461.933 1796.1 461.8C1795.83 461.653 1795.59 461.487 1795.38 461.3C1795.17 461.113 1794.95 460.953 1794.74 460.82C1794.54 460.673 1794.31 460.6 1794.06 460.6C1793.73 460.6 1793.49 460.72 1793.36 460.96C1793.24 461.187 1793.15 461.4 1793.08 461.6C1793.03 461.76 1792.93 461.873 1792.8 461.94C1792.67 461.993 1792.54 461.98 1792.42 461.9C1792.31 461.82 1792.26 461.66 1792.26 461.42C1792.26 460.833 1792.43 460.32 1792.76 459.88C1793.11 459.427 1793.61 459.2 1794.26 459.2C1794.63 459.2 1794.95 459.273 1795.2 459.42C1795.47 459.553 1795.7 459.713 1795.9 459.9C1796.11 460.087 1796.33 460.253 1796.54 460.4C1796.77 460.533 1797.02 460.6 1797.3 460.6C1797.61 460.6 1797.83 460.487 1797.98 460.26C1798.13 460.02 1798.23 459.8 1798.28 459.6C1798.33 459.427 1798.42 459.313 1798.54 459.26C1798.67 459.193 1798.8 459.2 1798.92 459.28C1799.04 459.36 1799.1 459.527 1799.1 459.78C1799.1 460.14 1799.03 460.493 1798.88 460.84C1798.75 461.173 1798.53 461.453 1798.22 461.68C1797.93 461.893 1797.55 462 1797.08 462ZM1806.03 472C1805.13 472 1804.47 471.82 1804.03 471.46C1803.6 471.1 1803.39 470.513 1803.39 469.7V465.6C1803.39 465.4 1803.4 465.16 1803.43 464.88C1803.47 464.587 1803.56 464.3 1803.71 464.02C1803.87 463.74 1804.13 463.507 1804.49 463.32C1804.86 463.133 1805.37 463.04 1806.03 463.04H1811.55C1812.21 463.04 1812.73 463.133 1813.09 463.32C1813.45 463.507 1813.7 463.74 1813.85 464.02C1814.01 464.3 1814.1 464.587 1814.13 464.88C1814.17 465.16 1814.19 465.4 1814.19 465.6V469.44C1814.19 469.68 1814.17 469.947 1814.13 470.24C1814.1 470.533 1814.01 470.813 1813.85 471.08C1813.69 471.347 1813.43 471.567 1813.07 471.74C1812.71 471.913 1812.2 472 1811.55 472H1806.03ZM1806.79 470.28H1810.79C1811.44 470.28 1811.77 470.013 1811.77 469.48V465.56C1811.77 465.027 1811.44 464.76 1810.79 464.76H1806.79C1806.15 464.76 1805.83 465.027 1805.83 465.56V469.48C1805.83 470.013 1806.15 470.28 1806.79 470.28ZM1825.83 472C1824.9 472 1824.17 471.867 1823.63 471.6C1823.1 471.333 1822.72 470.933 1822.49 470.4C1822.28 469.867 1822.17 469.207 1822.17 468.42V463.8C1822.17 463.027 1822.28 462.38 1822.49 461.86C1822.71 461.327 1823.08 460.927 1823.61 460.66C1824.15 460.38 1824.89 460.24 1825.83 460.24H1831.67C1832.61 460.24 1833.33 460.38 1833.85 460.66C1834.39 460.927 1834.76 461.327 1834.97 461.86C1835.2 462.38 1835.31 463.027 1835.31 463.8V468.42C1835.31 469.593 1835.05 470.487 1834.53 471.1C1834.01 471.7 1833.06 472 1831.67 472H1825.83ZM1826.41 470.08H1831.11C1831.61 470.08 1831.99 469.953 1832.25 469.7C1832.53 469.447 1832.67 469.1 1832.67 468.66V463.56C1832.67 463.173 1832.53 462.847 1832.25 462.58C1831.97 462.3 1831.59 462.16 1831.11 462.16H1826.41C1825.93 462.16 1825.55 462.287 1825.25 462.54C1824.96 462.793 1824.81 463.133 1824.81 463.56V468.66C1824.81 469.113 1824.95 469.467 1825.23 469.72C1825.53 469.96 1825.92 470.08 1826.41 470.08ZM1838.51 472V459.32H1840.95V463.28C1841.53 463.213 1842.2 463.16 1842.97 463.12C1843.76 463.067 1844.65 463.04 1845.65 463.04H1846.67C1847.34 463.04 1847.85 463.127 1848.21 463.3C1848.57 463.473 1848.83 463.693 1848.97 463.96C1849.13 464.227 1849.23 464.507 1849.25 464.8C1849.29 465.093 1849.31 465.36 1849.31 465.6V469.44C1849.31 469.64 1849.29 469.887 1849.25 470.18C1849.23 470.46 1849.13 470.74 1848.97 471.02C1848.83 471.3 1848.57 471.533 1848.21 471.72C1847.85 471.907 1847.34 472 1846.67 472H1845.65C1844.55 472 1843.58 471.973 1842.75 471.92C1841.93 471.853 1841.24 471.787 1840.69 471.72L1840.15 472H1838.51ZM1841.57 470.28H1845.91C1846.55 470.28 1846.87 470.013 1846.87 469.48V465.56C1846.89 465.267 1846.83 465.06 1846.69 464.94C1846.56 464.82 1846.3 464.76 1845.91 464.76H1844.91C1844.06 464.76 1843.3 464.78 1842.63 464.82C1841.98 464.847 1841.42 464.88 1840.95 464.92V469.66C1840.95 469.94 1840.98 470.113 1841.03 470.18C1841.1 470.247 1841.28 470.28 1841.57 470.28ZM1853.78 461.78C1853.29 461.78 1852.93 461.68 1852.7 461.48C1852.47 461.28 1852.36 460.94 1852.36 460.46C1852.36 459.993 1852.47 459.667 1852.68 459.48C1852.91 459.28 1853.27 459.18 1853.78 459.18C1854.29 459.18 1854.65 459.28 1854.88 459.48C1855.11 459.667 1855.22 459.993 1855.22 460.46C1855.22 460.927 1855.11 461.267 1854.88 461.48C1854.65 461.68 1854.29 461.78 1853.78 461.78ZM1851.7 475.52C1851.31 475.52 1850.94 475.487 1850.58 475.42C1850.21 475.367 1849.91 475.293 1849.68 475.2C1849.44 475.107 1849.32 475.013 1849.32 474.92L1849.72 473.72C1849.88 473.76 1850.11 473.8 1850.42 473.84C1850.71 473.893 1851.03 473.92 1851.36 473.92C1851.72 473.92 1852.01 473.833 1852.22 473.66C1852.45 473.487 1852.56 473.133 1852.56 472.6V463.04H1855V472.6C1855 473.333 1854.86 473.913 1854.58 474.34C1854.31 474.767 1853.95 475.067 1853.5 475.24C1853.05 475.427 1852.53 475.52 1851.96 475.52H1851.7ZM1860.67 472C1860 472 1859.49 471.913 1859.13 471.74C1858.77 471.567 1858.51 471.347 1858.35 471.08C1858.2 470.813 1858.11 470.533 1858.07 470.24C1858.04 469.947 1858.03 469.68 1858.03 469.44V465.6C1858.03 465.4 1858.04 465.16 1858.07 464.88C1858.11 464.587 1858.2 464.3 1858.35 464.02C1858.51 463.74 1858.77 463.507 1859.13 463.32C1859.5 463.133 1860.01 463.04 1860.67 463.04H1864.97C1865.85 463.04 1866.53 463.127 1867.03 463.3C1867.53 463.46 1867.89 463.727 1868.09 464.1C1868.3 464.473 1868.41 464.973 1868.41 465.6V468.56H1864.91C1863.71 468.56 1862.73 468.533 1861.97 468.48C1861.22 468.427 1860.72 468.393 1860.47 468.38V469.48C1860.45 470.013 1860.77 470.28 1861.43 470.28H1862.45C1863.17 470.28 1863.87 470.273 1864.55 470.26C1865.24 470.233 1865.87 470.207 1866.45 470.18C1867.02 470.14 1867.48 470.107 1867.83 470.08L1868.63 471.38C1868.63 471.793 1867.31 472 1864.69 472H1860.67ZM1860.47 466.84H1865.97V465.56C1865.97 465.293 1865.93 465.107 1865.87 465C1865.81 464.893 1865.64 464.827 1865.35 464.8C1865.05 464.773 1864.55 464.76 1863.85 464.76H1861.43C1860.79 464.76 1860.47 465.027 1860.47 465.56V466.84ZM1874.71 472C1873.7 472 1873 471.787 1872.63 471.36C1872.26 470.933 1872.07 470.293 1872.07 469.44V464.76H1870.43V463.04H1871.27C1871.52 463.04 1871.7 463 1871.81 462.92C1871.93 462.84 1872.02 462.68 1872.07 462.44L1872.47 460.3H1874.51V463.04H1878.67V464.76H1874.51V469.46C1874.51 469.793 1874.59 470.013 1874.75 470.12C1874.91 470.227 1875.15 470.28 1875.47 470.28H1878.29L1878.49 471.8C1878.21 471.84 1877.78 471.887 1877.21 471.94C1876.64 471.98 1876.01 472 1875.33 472H1874.71ZM1882.29 461.78C1881.8 461.78 1881.44 461.68 1881.21 461.48C1880.99 461.28 1880.87 460.947 1880.87 460.48C1880.87 460 1880.98 459.667 1881.19 459.48C1881.42 459.28 1881.79 459.18 1882.29 459.18C1882.8 459.18 1883.17 459.28 1883.39 459.48C1883.62 459.667 1883.73 460 1883.73 460.48C1883.73 460.933 1883.62 461.267 1883.39 461.48C1883.17 461.68 1882.8 461.78 1882.29 461.78ZM1881.07 472V463.04H1883.51V472H1881.07ZM1889.85 472L1885.73 463.04H1888.53L1890.83 468.56L1891.35 470H1891.55L1892.07 468.56L1894.41 463.04H1897.13L1896.81 464.26L1893.05 472H1889.85ZM1901.31 472C1900.3 472 1899.57 471.767 1899.11 471.3C1898.66 470.82 1898.43 470.167 1898.43 469.34C1898.43 468.473 1898.67 467.807 1899.13 467.34C1899.61 466.873 1900.34 466.64 1901.31 466.64H1902.33C1903.33 466.64 1904.23 466.667 1905.03 466.72C1905.83 466.773 1906.49 466.827 1907.01 466.88V465.56C1907.01 465.44 1907 465.32 1906.97 465.2C1906.95 465.067 1906.87 464.96 1906.73 464.88C1906.6 464.8 1906.37 464.76 1906.05 464.76H1905.05C1903.6 464.76 1902.39 464.787 1901.41 464.84C1900.44 464.88 1899.78 464.92 1899.43 464.96L1899.21 463.44C1899.21 463.253 1899.72 463.14 1900.73 463.1C1901.75 463.06 1903.44 463.04 1905.81 463.04H1906.81C1907.48 463.04 1907.99 463.133 1908.35 463.32C1908.71 463.507 1908.97 463.74 1909.11 464.02C1909.27 464.3 1909.37 464.587 1909.39 464.88C1909.43 465.16 1909.45 465.4 1909.45 465.6V472H1907.81L1907.03 471.6C1906.47 471.693 1905.8 471.787 1905.01 471.88C1904.23 471.96 1903.33 472 1902.31 472H1901.31ZM1901.83 470.28H1906.41C1906.71 470.28 1906.88 470.253 1906.93 470.2C1906.99 470.147 1907.01 469.98 1907.01 469.7V468.16H1901.83C1901.47 468.16 1901.22 468.247 1901.07 468.42C1900.94 468.593 1900.87 468.867 1900.87 469.24C1900.87 469.613 1900.95 469.88 1901.11 470.04C1901.27 470.2 1901.51 470.28 1901.83 470.28Z" fill="#DEDBCC"/>
<path d="M1061.65 420.365V410.205L1061.45 408.585H1070.31C1071.16 408.585 1071.83 408.698 1072.31 408.925C1072.8 409.152 1073.16 409.452 1073.39 409.825C1073.63 410.185 1073.78 410.572 1073.85 410.985C1073.92 411.398 1073.95 411.792 1073.95 412.165V413.345C1073.95 413.652 1073.9 413.998 1073.81 414.385C1073.72 414.758 1073.54 415.125 1073.29 415.485C1073.04 415.832 1072.67 416.125 1072.19 416.365C1071.71 416.592 1071.08 416.705 1070.31 416.705H1068.27C1067.43 416.705 1066.64 416.685 1065.91 416.645C1065.19 416.605 1064.65 416.572 1064.29 416.545V420.365H1061.65ZM1064.29 414.785H1069.73C1070.33 414.785 1070.74 414.638 1070.97 414.345C1071.2 414.052 1071.31 413.698 1071.31 413.285V412.025C1071.31 411.598 1071.2 411.238 1070.97 410.945C1070.74 410.652 1070.34 410.505 1069.75 410.505H1064.29V414.785ZM1077.34 420.365V408.605H1079.98V420.365H1077.34ZM1083.78 420.365L1083.98 418.765V408.605H1086.62V418.445H1094.9L1095.7 420.145C1095.7 420.198 1095.52 420.252 1095.16 420.305C1094.8 420.345 1094.18 420.365 1093.3 420.365H1083.78ZM1096.49 420.365L1102.35 408.605H1106.29L1112.13 420.365H1109.05L1107.87 417.825H1100.71L1099.41 420.365H1096.49ZM1101.43 415.865H1107.13L1104.39 410.405H1104.19L1101.43 415.865ZM1127.12 420.565C1126.59 420.565 1126.06 420.485 1125.54 420.325C1125.03 420.152 1124.45 419.738 1123.8 419.085L1122.36 417.645C1121.77 417.045 1121.13 416.605 1120.42 416.325C1119.73 416.045 1118.85 415.905 1117.8 415.905H1117.18V420.365H1114.54V410.205L1114.34 408.585H1123.2C1124.05 408.585 1124.72 408.698 1125.2 408.925C1125.69 409.152 1126.05 409.452 1126.28 409.825C1126.52 410.185 1126.67 410.572 1126.74 410.985C1126.81 411.398 1126.84 411.792 1126.84 412.165V412.545C1126.84 412.838 1126.8 413.165 1126.72 413.525C1126.64 413.885 1126.49 414.238 1126.26 414.585C1126.03 414.932 1125.71 415.225 1125.28 415.465C1124.87 415.705 1124.32 415.845 1123.64 415.885C1123.81 415.978 1124.03 416.125 1124.3 416.325C1124.57 416.512 1124.84 416.718 1125.12 416.945C1125.41 417.172 1125.68 417.378 1125.92 417.565C1126.16 417.752 1126.35 417.885 1126.48 417.965C1126.96 418.245 1127.39 418.438 1127.76 418.545C1128.13 418.652 1128.44 418.712 1128.68 418.725C1128.92 418.738 1129.06 418.745 1129.1 418.745L1128.7 420.365C1128.58 420.405 1128.38 420.445 1128.1 420.485C1127.82 420.538 1127.49 420.565 1127.12 420.565ZM1120.18 414.085C1120.69 414.085 1121.14 414.078 1121.54 414.065C1121.94 414.038 1122.3 414.012 1122.62 413.985C1123.21 413.918 1123.61 413.758 1123.84 413.505C1124.08 413.238 1124.2 412.898 1124.2 412.485V412.025C1124.2 411.598 1124.09 411.238 1123.86 410.945C1123.63 410.652 1123.23 410.505 1122.64 410.505H1117.18V413.985C1117.77 414.025 1118.31 414.052 1118.8 414.065C1119.29 414.078 1119.75 414.085 1120.18 414.085ZM1131.5 420.365V408.605H1143.94V410.525H1134.14V413.285H1141.62V415.265H1134.14V418.445H1144.02L1144.82 420.145C1144.82 420.198 1144.64 420.252 1144.28 420.305C1143.92 420.345 1143.3 420.365 1142.42 420.365H1131.5ZM1149.65 420.365C1148.75 420.365 1148.08 420.325 1147.65 420.245C1147.23 420.165 1147.01 420.072 1147.01 419.965L1147.81 418.225C1148.12 418.278 1148.88 418.332 1150.09 418.385C1151.32 418.425 1153 418.445 1155.13 418.445H1155.51C1156.09 418.445 1156.49 418.345 1156.73 418.145C1156.97 417.932 1157.09 417.578 1157.09 417.085V416.685C1157.09 416.218 1156.99 415.885 1156.79 415.685C1156.61 415.485 1156.18 415.385 1155.51 415.385H1150.87C1149.53 415.385 1148.55 415.138 1147.93 414.645C1147.32 414.138 1147.01 413.318 1147.01 412.185V411.865C1147.01 411.278 1147.12 410.738 1147.33 410.245C1147.56 409.752 1147.94 409.358 1148.47 409.065C1149.01 408.758 1149.74 408.605 1150.67 408.605H1156.11C1157.02 408.605 1157.75 408.652 1158.31 408.745C1158.87 408.838 1159.15 408.938 1159.15 409.045L1158.75 410.725C1158.41 410.685 1157.62 410.645 1156.39 410.605C1155.17 410.552 1153.52 410.525 1151.45 410.525L1151.23 410.505C1150.62 410.505 1150.21 410.632 1149.99 410.885C1149.78 411.125 1149.67 411.432 1149.65 411.805V412.145C1149.65 412.585 1149.77 412.918 1150.01 413.145C1150.27 413.358 1150.68 413.465 1151.25 413.465H1155.69C1156.55 413.465 1157.27 413.552 1157.87 413.725C1158.47 413.898 1158.93 414.218 1159.25 414.685C1159.57 415.138 1159.73 415.812 1159.73 416.705V417.025C1159.73 418.025 1159.47 418.832 1158.95 419.445C1158.45 420.058 1157.56 420.365 1156.29 420.365H1149.65ZM1168.33 420.365V410.205L1168.13 408.605H1177.41C1178.49 408.605 1179.31 408.738 1179.89 409.005C1180.47 409.272 1180.88 409.672 1181.11 410.205C1181.33 410.725 1181.45 411.378 1181.45 412.165V416.785C1181.45 417.585 1181.33 418.252 1181.11 418.785C1180.89 419.305 1180.49 419.698 1179.91 419.965C1179.33 420.232 1178.5 420.365 1177.41 420.365H1168.33ZM1170.97 418.445H1177.25C1178.27 418.445 1178.79 417.972 1178.81 417.025V411.925C1178.81 411.538 1178.69 411.212 1178.47 410.945C1178.24 410.665 1177.83 410.525 1177.25 410.525H1170.97V418.445ZM1182.85 420.365L1188.71 408.605H1192.65L1198.49 420.365H1195.41L1194.23 417.825H1187.07L1185.77 420.365H1182.85ZM1187.79 415.865H1193.49L1190.75 410.405H1190.55L1187.79 415.865ZM1209.15 420.365C1208.2 420.365 1207.46 420.232 1206.93 419.965C1206.39 419.698 1206.02 419.298 1205.81 418.765C1205.59 418.232 1205.49 417.572 1205.49 416.785V412.325C1205.49 411.045 1205.77 410.105 1206.35 409.505C1206.92 408.892 1207.85 408.585 1209.15 408.585H1215.17C1216.09 408.585 1216.79 408.638 1217.27 408.745C1217.76 408.838 1218.01 408.938 1218.01 409.045L1217.61 410.705C1217.38 410.665 1216.71 410.625 1215.59 410.585C1214.48 410.532 1212.87 410.505 1210.75 410.505H1209.73C1208.66 410.505 1208.13 410.978 1208.13 411.925V417.025C1208.13 417.478 1208.24 417.832 1208.47 418.085C1208.71 418.325 1209.13 418.445 1209.73 418.445H1210.55C1212.76 418.445 1214.47 418.425 1215.69 418.385C1216.91 418.332 1217.67 418.278 1217.97 418.225L1218.79 419.545C1218.79 419.612 1218.67 419.712 1218.45 419.845C1218.23 419.978 1217.83 420.098 1217.25 420.205C1216.66 420.312 1215.81 420.365 1214.71 420.365H1209.15ZM1224.84 420.365C1223.91 420.365 1223.18 420.232 1222.64 419.965C1222.11 419.698 1221.73 419.298 1221.5 418.765C1221.29 418.232 1221.18 417.572 1221.18 416.785V412.165C1221.18 411.392 1221.29 410.745 1221.5 410.225C1221.72 409.692 1222.09 409.292 1222.62 409.025C1223.16 408.745 1223.9 408.605 1224.84 408.605H1230.68C1231.62 408.605 1232.34 408.745 1232.86 409.025C1233.4 409.292 1233.77 409.692 1233.98 410.225C1234.21 410.745 1234.32 411.392 1234.32 412.165V416.785C1234.32 417.958 1234.06 418.852 1233.54 419.465C1233.02 420.065 1232.07 420.365 1230.68 420.365H1224.84ZM1225.42 418.445H1230.12C1230.62 418.445 1231 418.318 1231.26 418.065C1231.54 417.812 1231.68 417.465 1231.68 417.025V411.925C1231.68 411.538 1231.54 411.212 1231.26 410.945C1230.98 410.665 1230.6 410.525 1230.12 410.525H1225.42C1224.94 410.525 1224.56 410.652 1224.26 410.905C1223.97 411.158 1223.82 411.498 1223.82 411.925V417.025C1223.82 417.478 1223.96 417.832 1224.24 418.085C1224.54 418.325 1224.93 418.445 1225.42 418.445ZM1238.12 420.365V410.205L1237.92 408.605H1247.2C1248.28 408.605 1249.11 408.738 1249.68 409.005C1250.27 409.272 1250.68 409.672 1250.9 410.205C1251.13 410.725 1251.24 411.378 1251.24 412.165V416.785C1251.24 417.585 1251.13 418.252 1250.9 418.785C1250.69 419.305 1250.29 419.698 1249.7 419.965C1249.13 420.232 1248.3 420.365 1247.2 420.365H1238.12ZM1240.76 418.445H1247.04C1248.07 418.445 1248.59 417.972 1248.6 417.025V411.925C1248.6 411.538 1248.49 411.212 1248.26 410.945C1248.04 410.665 1247.63 410.525 1247.04 410.525H1240.76V418.445ZM1254.64 420.365V408.605H1267.08V410.525H1257.28V413.285H1264.76V415.265H1257.28V418.445H1267.16L1267.96 420.145C1267.96 420.198 1267.78 420.252 1267.42 420.305C1267.06 420.345 1266.44 420.365 1265.56 420.365H1254.64ZM1270.75 420.365V410.205L1270.55 408.605H1273.43L1280.23 415.725L1281.01 416.805H1281.23V408.605H1283.87V420.365H1281.33L1274.37 413.125L1273.59 412.185H1273.39V420.365H1270.75ZM1287.67 420.365V408.605H1300.11V410.525H1290.31V413.285H1297.79V415.265H1290.31V418.445H1300.19L1300.99 420.145C1300.99 420.198 1300.81 420.252 1300.45 420.305C1300.09 420.345 1299.47 420.365 1298.59 420.365H1287.67ZM1302.18 420.365L1302.94 419.165L1307.38 414.485L1302.18 408.605H1305.38L1309.24 413.025H1309.46L1313.34 408.605H1316.54L1315.76 409.785L1311.34 414.485L1316.54 420.365H1313.34L1309.46 415.905H1309.24L1305.38 420.365H1302.18ZM1321.91 420.565C1320.7 420.565 1319.85 420.238 1319.37 419.585C1318.89 418.932 1318.65 418.065 1318.65 416.985V408.605H1321.29V417.065C1321.29 417.692 1321.44 418.112 1321.75 418.325C1322.06 418.538 1322.44 418.645 1322.89 418.645H1327.13C1327.56 418.645 1327.93 418.538 1328.25 418.325C1328.57 418.098 1328.73 417.678 1328.73 417.065V408.605H1331.37V416.985C1331.37 417.705 1331.27 418.332 1331.07 418.865C1330.87 419.398 1330.54 419.818 1330.07 420.125C1329.6 420.418 1328.96 420.565 1328.13 420.565H1321.91ZM1337.1 420.365C1336.2 420.365 1335.53 420.325 1335.1 420.245C1334.68 420.165 1334.46 420.072 1334.46 419.965L1335.26 418.225C1335.57 418.278 1336.33 418.332 1337.54 418.385C1338.77 418.425 1340.45 418.445 1342.58 418.445H1342.96C1343.54 418.445 1343.94 418.345 1344.18 418.145C1344.42 417.932 1344.54 417.578 1344.54 417.085V416.685C1344.54 416.218 1344.44 415.885 1344.24 415.685C1344.06 415.485 1343.63 415.385 1342.96 415.385H1338.32C1336.98 415.385 1336 415.138 1335.38 414.645C1334.77 414.138 1334.46 413.318 1334.46 412.185V411.865C1334.46 411.278 1334.57 410.738 1334.78 410.245C1335.01 409.752 1335.39 409.358 1335.92 409.065C1336.46 408.758 1337.19 408.605 1338.12 408.605H1343.56C1344.47 408.605 1345.2 408.652 1345.76 408.745C1346.32 408.838 1346.6 408.938 1346.6 409.045L1346.2 410.725C1345.86 410.685 1345.07 410.645 1343.84 410.605C1342.62 410.552 1340.97 410.525 1338.9 410.525L1338.68 410.505C1338.07 410.505 1337.66 410.632 1337.44 410.885C1337.23 411.125 1337.12 411.432 1337.1 411.805V412.145C1337.1 412.585 1337.22 412.918 1337.46 413.145C1337.72 413.358 1338.13 413.465 1338.7 413.465H1343.14C1344 413.465 1344.72 413.552 1345.32 413.725C1345.92 413.898 1346.38 414.218 1346.7 414.685C1347.02 415.138 1347.18 415.812 1347.18 416.705V417.025C1347.18 418.025 1346.92 418.832 1346.4 419.445C1345.9 420.058 1345.01 420.365 1343.74 420.365H1337.1Z" fill="#DEDBCC"/>
<rect width="211.376" height="211.376" transform="matrix(0.678638 0.734472 -0.678638 0.734472 143.448 544.5)" fill="#F2FF58" fill-opacity="0.1"/>
<rect width="69.8275" height="69.8275" transform="matrix(0.703858 0.71034 -0.703858 0.71034 306.281 0)" fill="#F2FF58" fill-opacity="0.1"/>
<rect width="81.8135" height="81.8135" transform="matrix(0.678638 0.734472 -0.678638 0.734472 201.08 731.987)" fill="#F2FF58" fill-opacity="0.15"/>
<rect width="146.887" height="146.887" transform="matrix(0.678638 0.734472 -0.678638 0.734472 306.281 310.5)" fill="#F2FF58" fill-opacity="0.1"/>
<rect width="275.662" height="275.662" transform="matrix(0.678638 0.734472 -0.678638 0.734472 218.287 99)" fill="#F2FF58" fill-opacity="0.1"/>
<rect width="211.376" height="211.376" transform="matrix(-0.678638 0.734472 0.678638 0.734472 2267.55 544.5)" fill="#F2FF58" fill-opacity="0.1"/>
<rect width="69.8275" height="69.8275" transform="matrix(-0.703858 0.71034 0.703858 0.71034 2104.72 0)" fill="#F2FF58" fill-opacity="0.1"/>
<rect width="81.8135" height="81.8135" transform="matrix(-0.678638 0.734472 0.678638 0.734472 2209.92 731.987)" fill="#F2FF58" fill-opacity="0.1"/>
<rect width="146.887" height="146.887" transform="matrix(-0.678638 0.734472 0.678638 0.734472 2104.72 310.5)" fill="#F2FF58" fill-opacity="0.1"/>
<rect width="275.662" height="275.662" transform="matrix(-0.678638 0.734472 0.678638 0.734472 2192.71 99)" fill="#F2FF58" fill-opacity="0.1"/>
</svg>
